<svg version="1.1" viewBox="0.0 0.0 600.0 371.0" fill="none" stroke="none" stroke-linecap="square" stroke-miterlimit="10" width="600" height="371" xmlns:xlink="http://www.w3.org/1999/xlink" xmlns="http://www.w3.org/2000/svg"><path fill="#ffffff" d="M0 0L600.0 0L600.0 371.0L0 371.0L0 0Z" fill-rule="nonzero"/><path stroke="#cccccc" stroke-width="1.0" stroke-linecap="butt" d="M148.5 53.5L148.5 295.5" fill-rule="nonzero"/><path stroke="#cccccc" stroke-width="1.0" stroke-linecap="butt" d="M235.5 53.5L235.5 295.5" fill-rule="nonzero"/><path stroke="#cccccc" stroke-width="1.0" stroke-linecap="butt" d="M321.5 53.5L321.5 295.5" fill-rule="nonzero"/><path stroke="#cccccc" stroke-width="1.0" stroke-linecap="butt" d="M408.5 53.5L408.5 295.5" fill-rule="nonzero"/><path stroke="#cccccc" stroke-width="1.0" stroke-linecap="butt" d="M494.5 53.5L494.5 295.5" fill-rule="nonzero"/><path stroke="#cccccc" stroke-width="1.0" stroke-linecap="butt" d="M581.5 53.5L581.5 295.5" fill-rule="nonzero"/><path stroke="#333333" stroke-width="1.0" stroke-linecap="butt" d="M96.5 295.5L581.5 295.5" fill-rule="nonzero"/><path stroke="#cccccc" stroke-width="1.0" stroke-linecap="butt" d="M96.5 247.5L581.5 247.5" fill-rule="nonzero"/><path stroke="#cccccc" stroke-width="1.0" stroke-linecap="butt" d="M96.5 198.5L581.5 198.5" fill-rule="nonzero"/><path stroke="#cccccc" stroke-width="1.0" stroke-linecap="butt" d="M96.5 150.5L581.5 150.5" fill-rule="nonzero"/><path stroke="#cccccc" stroke-width="1.0" stroke-linecap="butt" d="M96.5 102.5L581.5 102.5" fill-rule="nonzero"/><path stroke="#cccccc" stroke-width="1.0" stroke-linecap="butt" d="M96.5 53.5L581.5 53.5" fill-rule="nonzero"/><clipPath id="id_0"><path d="M96.55 53.916668L581.45 53.916668L581.45 295.45L96.55 295.45L96.55 53.916668Z" clip-rule="nonzero"/></clipPath><path stroke="#4285f4" stroke-width="2.0" stroke-linecap="butt" clip-path="url(#id_0)" d="M96.55 295.3534L131.18571 295.25677L165.82143 295.16016L200.45714 295.06354L235.09285 294.96692L269.72858 294.87033L304.3643 294.7737L339.0 294.6771L373.6357 294.58047L408.27142 294.48386L442.90714 294.38727L477.54285 294.29065L512.1786 294.19403L546.8143 294.0974L581.45 294.0008" fill-rule="nonzero"/><path stroke="#ea4335" stroke-width="2.0" stroke-linecap="butt" clip-path="url(#id_0)" d="M96.55 285.78867L131.18571 276.12732L165.82143 266.466L200.45714 256.80466L235.09285 247.14333L269.72858 237.482L304.3643 227.82066L339.0 218.15933L373.6357 208.498L408.27142 198.83667L442.90714 189.17534L477.54285 179.514L512.1786 169.85266L546.8143 160.19133L581.45 150.53" fill-rule="nonzero"/><path stroke="#fbbc04" stroke-width="2.0" stroke-linecap="butt" clip-path="url(#id_0)" d="M96.55 294.48386L131.18571 291.58548L165.82143 286.7548L200.45714 279.99185L235.09285 271.29666L269.72858 260.6692L304.3643 248.10947L339.0 233.61746L373.6357 217.1932L408.27142 198.83667L442.90714 178.54787L477.54285 156.3268L512.1786 132.17346L546.8143 106.08787L581.45 78.07" fill-rule="nonzero"/><path fill="#000000" fill-opacity="0.0" clip-path="url(#id_0)" d="M99.55 295.3534C99.55 297.01025 98.206856 298.3534 96.55 298.3534C94.89314 298.3534 93.55 297.01025 93.55 295.3534C93.55 293.69653 94.89314 292.3534 96.55 292.3534C98.206856 292.3534 99.55 293.69653 99.55 295.3534Z" fill-rule="nonzero"/><path fill="#000000" fill-opacity="0.0" clip-path="url(#id_0)" d="M134.18571 295.25677C134.18571 296.91364 132.84258 298.25677 131.18571 298.25677C129.52885 298.25677 128.18571 296.91364 128.18571 295.25677C128.18571 293.5999 129.52885 292.25677 131.18571 292.25677C132.84258 292.25677 134.18571 293.5999 134.18571 295.25677Z" fill-rule="nonzero"/><path fill="#000000" fill-opacity="0.0" clip-path="url(#id_0)" d="M168.82143 295.16016C168.82143 296.81702 167.47829 298.16016 165.82143 298.16016C164.16458 298.16016 162.82143 296.81702 162.82143 295.16016C162.82143 293.5033 164.16458 292.16016 165.82143 292.16016C167.47829 292.16016 168.82143 293.5033 168.82143 295.16016Z" fill-rule="nonzero"/><path fill="#000000" fill-opacity="0.0" clip-path="url(#id_0)" d="M203.45714 295.06354C203.45714 296.7204 202.114 298.06354 200.45714 298.06354C198.8003 298.06354 197.45714 296.7204 197.45714 295.06354C197.45714 293.40668 198.8003 292.06354 200.45714 292.06354C202.114 292.06354 203.45714 293.40668 203.45714 295.06354Z" fill-rule="nonzero"/><path fill="#000000" fill-opacity="0.0" clip-path="url(#id_0)" d="M238.09285 294.96692C238.09285 296.62378 236.74971 297.96692 235.09285 297.96692C233.436 297.96692 232.09285 296.62378 232.09285 294.96692C232.09285 293.3101 233.436 291.96692 235.09285 291.96692C236.74971 291.96692 238.09285 293.3101 238.09285 294.96692Z" fill-rule="nonzero"/><path fill="#000000" fill-opacity="0.0" clip-path="url(#id_0)" d="M272.72858 294.87033C272.72858 296.52716 271.38544 297.87033 269.72858 297.87033C268.07172 297.87033 266.72858 296.52716 266.72858 294.87033C266.72858 293.21347 268.07172 291.87033 269.72858 291.87033C271.38544 291.87033 272.72858 293.21347 272.72858 294.87033Z" fill-rule="nonzero"/><path fill="#000000" fill-opacity="0.0" clip-path="url(#id_0)" d="M307.3643 294.7737C307.3643 296.43057 306.02115 297.7737 304.3643 297.7737C302.70743 297.7737 301.3643 296.43057 301.3643 294.7737C301.3643 293.11685 302.70743 291.7737 304.3643 291.7737C306.02115 291.7737 307.3643 293.11685 307.3643 294.7737Z" fill-rule="nonzero"/><path fill="#000000" fill-opacity="0.0" clip-path="url(#id_0)" d="M342.0 294.6771C342.0 296.33395 340.65686 297.6771 339.0 297.6771C337.34314 297.6771 336.0 296.33395 336.0 294.6771C336.0 293.02023 337.34314 291.6771 339.0 291.6771C340.65686 291.6771 342.0 293.02023 342.0 294.6771Z" fill-rule="nonzero"/><path fill="#000000" fill-opacity="0.0" clip-path="url(#id_0)" d="M376.6357 294.58047C376.6357 296.23734 375.29257 297.58047 373.6357 297.58047C371.97885 297.58047 370.6357 296.23734 370.6357 294.58047C370.6357 292.9236 371.97885 291.58047 373.6357 291.58047C375.29257 291.58047 376.6357 292.9236 376.6357 294.58047Z" fill-rule="nonzero"/><path fill="#000000" fill-opacity="0.0" clip-path="url(#id_0)" d="M411.27142 294.48386C411.27142 296.14072 409.92828 297.48386 408.27142 297.48386C406.61456 297.48386 405.27142 296.14072 405.27142 294.48386C405.27142 292.82703 406.61456 291.48386 408.27142 291.48386C409.92828 291.48386 411.27142 292.82703 411.27142 294.48386Z" fill-rule="nonzero"/><path fill="#000000" fill-opacity="0.0" clip-path="url(#id_0)" d="M445.90714 294.38727C445.90714 296.0441 444.564 297.38727 442.90714 297.38727C441.25027 297.38727 439.90714 296.0441 439.90714 294.38727C439.90714 292.7304 441.25027 291.38727 442.90714 291.38727C444.564 291.38727 445.90714 292.7304 445.90714 294.38727Z" fill-rule="nonzero"/><path fill="#000000" fill-opacity="0.0" clip-path="url(#id_0)" d="M480.54285 294.29065C480.54285 295.94748 479.1997 297.29065 477.54285 297.29065C475.88602 297.29065 474.54285 295.94748 474.54285 294.29065C474.54285 292.6338 475.88602 291.29065 477.54285 291.29065C479.1997 291.29065 480.54285 292.6338 480.54285 294.29065Z" fill-rule="nonzero"/><path fill="#000000" fill-opacity="0.0" clip-path="url(#id_0)" d="M515.1786 294.19403C515.1786 295.8509 513.83545 297.19403 512.1786 297.19403C510.52173 297.19403 509.17856 295.8509 509.17856 294.19403C509.17856 292.53717 510.52173 291.19403 512.1786 291.19403C513.83545 291.19403 515.1786 292.53717 515.1786 294.19403Z" fill-rule="nonzero"/><path fill="#000000" fill-opacity="0.0" clip-path="url(#id_0)" d="M549.8143 294.0974C549.8143 295.75427 548.4711 297.0974 546.8143 297.0974C545.1574 297.0974 543.8143 295.75427 543.8143 294.0974C543.8143 292.44055 545.1574 291.0974 546.8143 291.0974C548.4711 291.0974 549.8143 292.44055 549.8143 294.0974Z" fill-rule="nonzero"/><path fill="#000000" fill-opacity="0.0" clip-path="url(#id_0)" d="M584.45 294.0008C584.45 295.65765 583.1069 297.0008 581.45 297.0008C579.79315 297.0008 578.45 295.65765 578.45 294.0008C578.45 292.34393 579.79315 291.0008 581.45 291.0008C583.1069 291.0008 584.45 292.34393 584.45 294.0008Z" fill-rule="nonzero"/><path fill="#000000" fill-opacity="0.0" clip-path="url(#id_0)" d="M99.55 285.78867C99.55 287.44553 98.206856 288.78867 96.55 288.78867C94.89314 288.78867 93.55 287.44553 93.55 285.78867C93.55 284.1318 94.89314 282.78867 96.55 282.78867C98.206856 282.78867 99.55 284.1318 99.55 285.78867Z" fill-rule="nonzero"/><path fill="#000000" fill-opacity="0.0" clip-path="url(#id_0)" d="M134.18571 276.12732C134.18571 277.78418 132.84258 279.12732 131.18571 279.12732C129.52885 279.12732 128.18571 277.78418 128.18571 276.12732C128.18571 274.4705 129.52885 273.12732 131.18571 273.12732C132.84258 273.12732 134.18571 274.4705 134.18571 276.12732Z" fill-rule="nonzero"/><path fill="#000000" fill-opacity="0.0" clip-path="url(#id_0)" d="M168.82143 266.466C168.82143 268.12286 167.47829 269.466 165.82143 269.466C164.16458 269.466 162.82143 268.12286 162.82143 266.466C162.82143 264.80914 164.16458 263.466 165.82143 263.466C167.47829 263.466 168.82143 264.80914 168.82143 266.466Z" fill-rule="nonzero"/><path fill="#000000" fill-opacity="0.0" clip-path="url(#id_0)" d="M203.45714 256.80466C203.45714 258.46152 202.114 259.80466 200.45714 259.80466C198.8003 259.80466 197.45714 258.46152 197.45714 256.80466C197.45714 255.14781 198.8003 253.80467 200.45714 253.80467C202.114 253.80467 203.45714 255.14781 203.45714 256.80466Z" fill-rule="nonzero"/><path fill="#000000" fill-opacity="0.0" clip-path="url(#id_0)" d="M238.09285 247.14333C238.09285 248.80019 236.74971 250.14333 235.09285 250.14333C233.436 250.14333 232.09285 248.80019 232.09285 247.14333C232.09285 245.48648 233.436 244.14333 235.09285 244.14333C236.74971 244.14333 238.09285 245.48648 238.09285 247.14333Z" fill-rule="nonzero"/><path fill="#000000" fill-opacity="0.0" clip-path="url(#id_0)" d="M272.72858 237.482C272.72858 239.13885 271.38544 240.482 269.72858 240.482C268.07172 240.482 266.72858 239.13885 266.72858 237.482C266.72858 235.82515 268.07172 234.482 269.72858 234.482C271.38544 234.482 272.72858 235.82515 272.72858 237.482Z" fill-rule="nonzero"/><path fill="#000000" fill-opacity="0.0" clip-path="url(#id_0)" d="M307.3643 227.82066C307.3643 229.47752 306.02115 230.82066 304.3643 230.82066C302.70743 230.82066 301.3643 229.47752 301.3643 227.82066C301.3643 226.16382 302.70743 224.82066 304.3643 224.82066C306.02115 224.82066 307.3643 226.16382 307.3643 227.82066Z" fill-rule="nonzero"/><path fill="#000000" fill-opacity="0.0" clip-path="url(#id_0)" d="M342.0 218.15933C342.0 219.8162 340.65686 221.15933 339.0 221.15933C337.34314 221.15933 336.0 219.8162 336.0 218.15933C336.0 216.50247 337.34314 215.15933 339.0 215.15933C340.65686 215.15933 342.0 216.50247 342.0 218.15933Z" fill-rule="nonzero"/><path fill="#000000" fill-opacity="0.0" clip-path="url(#id_0)" d="M376.6357 208.498C376.6357 210.15486 375.29257 211.498 373.6357 211.498C371.97885 211.498 370.6357 210.15486 370.6357 208.498C370.6357 206.84114 371.97885 205.498 373.6357 205.498C375.29257 205.498 376.6357 206.84114 376.6357 208.498Z" fill-rule="nonzero"/><path fill="#000000" fill-opacity="0.0" clip-path="url(#id_0)" d="M411.27142 198.83667C411.27142 200.49352 409.92828 201.83667 408.27142 201.83667C406.61456 201.83667 405.27142 200.49352 405.27142 198.83667C405.27142 197.17981 406.61456 195.83667 408.27142 195.83667C409.92828 195.83667 411.27142 197.17981 411.27142 198.83667Z" fill-rule="nonzero"/><path fill="#000000" fill-opacity="0.0" clip-path="url(#id_0)" d="M445.90714 189.17534C445.90714 190.83218 444.564 192.17534 442.90714 192.17534C441.25027 192.17534 439.90714 190.83218 439.90714 189.17534C439.90714 187.51848 441.25027 186.17534 442.90714 186.17534C444.564 186.17534 445.90714 187.51848 445.90714 189.17534Z" fill-rule="nonzero"/><path fill="#000000" fill-opacity="0.0" clip-path="url(#id_0)" d="M480.54285 179.514C480.54285 181.17085 479.1997 182.514 477.54285 182.514C475.88602 182.514 474.54285 181.17085 474.54285 179.514C474.54285 177.85715 475.88602 176.514 477.54285 176.514C479.1997 176.514 480.54285 177.85715 480.54285 179.514Z" fill-rule="nonzero"/><path fill="#000000" fill-opacity="0.0" clip-path="url(#id_0)" d="M515.1786 169.85266C515.1786 171.50952 513.83545 172.85266 512.1786 172.85266C510.52173 172.85266 509.17856 171.50952 509.17856 169.85266C509.17856 168.19582 510.52173 166.85266 512.1786 166.85266C513.83545 166.85266 515.1786 168.19582 515.1786 169.85266Z" fill-rule="nonzero"/><path fill="#000000" fill-opacity="0.0" clip-path="url(#id_0)" d="M549.8143 160.19133C549.8143 161.84819 548.4711 163.19133 546.8143 163.19133C545.1574 163.19133 543.8143 161.84819 543.8143 160.19133C543.8143 158.53448 545.1574 157.19133 546.8143 157.19133C548.4711 157.19133 549.8143 158.53448 549.8143 160.19133Z" fill-rule="nonzero"/><path fill="#000000" fill-opacity="0.0" clip-path="url(#id_0)" d="M584.45 150.53C584.45 152.18686 583.1069 153.53 581.45 153.53C579.79315 153.53 578.45 152.18686 578.45 150.53C578.45 148.87314 579.79315 147.53 581.45 147.53C583.1069 147.53 584.45 148.87314 584.45 150.53Z" fill-rule="nonzero"/><path fill="#000000" fill-opacity="0.0" clip-path="url(#id_0)" d="M99.55 294.48386C99.55 296.14072 98.206856 297.48386 96.55 297.48386C94.89314 297.48386 93.55 296.14072 93.55 294.48386C93.55 292.82703 94.89314 291.48386 96.55 291.48386C98.206856 291.48386 99.55 292.82703 99.55 294.48386Z" fill-rule="nonzero"/><path fill="#000000" fill-opacity="0.0" clip-path="url(#id_0)" d="M134.18571 291.58548C134.18571 293.2423 132.84258 294.58548 131.18571 294.58548C129.52885 294.58548 128.18571 293.2423 128.18571 291.58548C128.18571 289.92862 129.52885 288.58548 131.18571 288.58548C132.84258 288.58548 134.18571 289.92862 134.18571 291.58548Z" fill-rule="nonzero"/><path fill="#000000" fill-opacity="0.0" clip-path="url(#id_0)" d="M168.82143 286.7548C168.82143 288.41165 167.47829 289.7548 165.82143 289.7548C164.16458 289.7548 162.82143 288.41165 162.82143 286.7548C162.82143 285.09793 164.16458 283.7548 165.82143 283.7548C167.47829 283.7548 168.82143 285.09793 168.82143 286.7548Z" fill-rule="nonzero"/><path fill="#000000" fill-opacity="0.0" clip-path="url(#id_0)" d="M203.45714 279.99185C203.45714 281.6487 202.114 282.99185 200.45714 282.99185C198.8003 282.99185 197.45714 281.6487 197.45714 279.99185C197.45714 278.33502 198.8003 276.99185 200.45714 276.99185C202.114 276.99185 203.45714 278.33502 203.45714 279.99185Z" fill-rule="nonzero"/><path fill="#000000" fill-opacity="0.0" clip-path="url(#id_0)" d="M238.09285 271.29666C238.09285 272.95352 236.74971 274.29666 235.09285 274.29666C233.436 274.29666 232.09285 272.95352 232.09285 271.29666C232.09285 269.6398 233.436 268.29666 235.09285 268.29666C236.74971 268.29666 238.09285 269.6398 238.09285 271.29666Z" fill-rule="nonzero"/><path fill="#000000" fill-opacity="0.0" clip-path="url(#id_0)" d="M272.72858 260.6692C272.72858 262.32605 271.38544 263.6692 269.72858 263.6692C268.07172 263.6692 266.72858 262.32605 266.72858 260.6692C266.72858 259.01236 268.07172 257.6692 269.72858 257.6692C271.38544 257.6692 272.72858 259.01236 272.72858 260.6692Z" fill-rule="nonzero"/><path fill="#000000" fill-opacity="0.0" clip-path="url(#id_0)" d="M307.3643 248.10947C307.3643 249.76633 306.02115 251.10947 304.3643 251.10947C302.70743 251.10947 301.3643 249.76633 301.3643 248.10947C301.3643 246.4526 302.70743 245.10947 304.3643 245.10947C306.02115 245.10947 307.3643 246.4526 307.3643 248.10947Z" fill-rule="nonzero"/><path fill="#000000" fill-opacity="0.0" clip-path="url(#id_0)" d="M342.0 233.61746C342.0 235.27432 340.65686 236.61746 339.0 236.61746C337.34314 236.61746 336.0 235.27432 336.0 233.61746C336.0 231.96062 337.34314 230.61746 339.0 230.61746C340.65686 230.61746 342.0 231.96062 342.0 233.61746Z" fill-rule="nonzero"/><path fill="#000000" fill-opacity="0.0" clip-path="url(#id_0)" d="M376.6357 217.1932C376.6357 218.85005 375.29257 220.1932 373.6357 220.1932C371.97885 220.1932 370.6357 218.85005 370.6357 217.1932C370.6357 215.53635 371.97885 214.1932 373.6357 214.1932C375.29257 214.1932 376.6357 215.53635 376.6357 217.1932Z" fill-rule="nonzero"/><path fill="#000000" fill-opacity="0.0" clip-path="url(#id_0)" d="M411.27142 198.83667C411.27142 200.49352 409.92828 201.83667 408.27142 201.83667C406.61456 201.83667 405.27142 200.49352 405.27142 198.83667C405.27142 197.17981 406.61456 195.83667 408.27142 195.83667C409.92828 195.83667 411.27142 197.17981 411.27142 198.83667Z" fill-rule="nonzero"/><path fill="#000000" fill-opacity="0.0" clip-path="url(#id_0)" d="M445.90714 178.54787C445.90714 180.20473 444.564 181.54787 442.90714 181.54787C441.25027 181.54787 439.90714 180.20473 439.90714 178.54787C439.90714 176.891 441.25027 175.54787 442.90714 175.54787C444.564 175.54787 445.90714 176.891 445.90714 178.54787Z" fill-rule="nonzero"/><path fill="#000000" fill-opacity="0.0" clip-path="url(#id_0)" d="M480.54285 156.3268C480.54285 157.98366 479.1997 159.3268 477.54285 159.3268C475.88602 159.3268 474.54285 157.98366 474.54285 156.3268C474.54285 154.66995 475.88602 153.3268 477.54285 153.3268C479.1997 153.3268 480.54285 154.66995 480.54285 156.3268Z" fill-rule="nonzero"/><path fill="#000000" fill-opacity="0.0" clip-path="url(#id_0)" d="M515.1786 132.17346C515.1786 133.83032 513.83545 135.17346 512.1786 135.17346C510.52173 135.17346 509.17856 133.83032 509.17856 132.17346C509.17856 130.51662 510.52173 129.17346 512.1786 129.17346C513.83545 129.17346 515.1786 130.51662 515.1786 132.17346Z" fill-rule="nonzero"/><path fill="#000000" fill-opacity="0.0" clip-path="url(#id_0)" d="M549.8143 106.08787C549.8143 107.74472 548.4711 109.08787 546.8143 109.08787C545.1574 109.08787 543.8143 107.74472 543.8143 106.08787C543.8143 104.431015 545.1574 103.08787 546.8143 103.08787C548.4711 103.08787 549.8143 104.431015 549.8143 106.08787Z" fill-rule="nonzero"/><path fill="#000000" fill-opacity="0.0" clip-path="url(#id_0)" d="M584.45 78.07C584.45 79.72685 583.1069 81.07 581.45 81.07C579.79315 81.07 578.45 79.72685 578.45 78.07C578.45 76.41315 579.79315 75.07 581.45 75.07C583.1069 75.07 584.45 76.41315 584.45 78.07Z" fill-rule="nonzero"/><path fill="#000000" d="M277.0625 349.45L277.0625 339.4344L278.42188 339.4344L283.6875 347.29376L283.6875 339.4344L284.96875 339.4344L284.96875 349.45L283.60938 349.45L278.34375 341.575L278.34375 349.45L277.0625 349.45ZM290.6875 349.45L290.6875 348.3875Q289.82812 349.6219 288.375 349.6219Q287.73438 349.6219 287.17188 349.3719Q286.625 349.1219 286.34375 348.7469Q286.07812 348.3719 285.96875 347.84064Q285.89062 347.48126 285.89062 346.6844L285.89062 342.1844L287.125 342.1844L287.125 346.21564Q287.125 347.1844 287.20312 347.5125Q287.3125 347.9969 287.6875 348.27814Q288.0625 348.5594 288.625 348.5594Q289.17188 348.5594 289.65625 348.27814Q290.14062 347.98126 290.34375 347.4969Q290.54688 347.0125 290.54688 346.075L290.54688 342.1844L291.78125 342.1844L291.78125 349.45L290.6875 349.45ZM293.92188 349.45L293.92188 342.1844L295.03125 342.1844L295.03125 343.21564Q295.35938 342.66876 295.92188 342.35626Q296.5 342.02814 297.21875 342.02814Q298.03125 342.02814 298.54688 342.3719Q299.0625 342.7 299.28125 343.29376Q300.14062 342.02814 301.51562 342.02814Q302.59375 342.02814 303.17188 342.6219Q303.76562 343.21564 303.76562 344.46564L303.76562 349.45L302.53125 349.45L302.53125 344.8719Q302.53125 344.1375 302.40625 343.8094Q302.29688 343.48126 301.98438 343.29376Q301.67188 343.09064 301.25 343.09064Q300.48438 343.09064 299.96875 343.60626Q299.46875 344.10626 299.46875 345.23126L299.46875 349.45L298.23438 349.45L298.23438 344.73126Q298.23438 343.91876 297.9375 343.5125Q297.64062 343.09064 296.95312 343.09064Q296.4375 343.09064 295.98438 343.3719Q295.54688 343.6375 295.34375 344.16876Q295.15625 344.6844 295.15625 345.6844L295.15625 349.45L293.92188 349.45ZM306.0625 349.45L304.92188 349.45L304.92188 339.4344L306.14062 339.4344L306.14062 342.9969Q306.92188 342.02814 308.14062 342.02814Q308.8125 342.02814 309.40625 342.29376Q310.0 342.5594 310.39062 343.0594Q310.78125 343.54376 311.0 344.23126Q311.21875 344.91876 311.21875 345.71564Q311.21875 347.575 310.28125 348.60626Q309.35938 349.6219 308.07812 349.6219Q306.79688 349.6219 306.0625 348.54376L306.0625 349.45ZM306.04688 345.7625Q306.04688 347.075 306.40625 347.65314Q306.98438 348.60626 307.96875 348.60626Q308.78125 348.60626 309.35938 347.90314Q309.95312 347.2 309.95312 345.8094Q309.95312 344.3875 309.39062 343.71564Q308.82812 343.04376 308.03125 343.04376Q307.21875 343.04376 306.625 343.7469Q306.04688 344.4344 306.04688 345.7625ZM317.89062 347.10626L319.17188 347.2625Q318.85938 348.3875 318.04688 349.0125Q317.23438 349.6219 315.96875 349.6219Q314.375 349.6219 313.4375 348.6375Q312.51562 347.65314 312.51562 345.8875Q312.51562 344.04376 313.45312 343.04376Q314.40625 342.02814 315.90625 342.02814Q317.35938 342.02814 318.28125 343.02814Q319.20312 344.0125 319.20312 345.8094Q319.20312 345.91876 319.20312 346.1375L313.78125 346.1375Q313.85938 347.325 314.45312 347.96564Q315.0625 348.60626 315.98438 348.60626Q316.65625 348.60626 317.125 348.2469Q317.60938 347.8875 317.89062 347.10626ZM313.85938 345.1219L317.90625 345.1219Q317.82812 344.2 317.4375 343.7469Q316.85938 343.04376 315.92188 343.04376Q315.0625 343.04376 314.48438 343.60626Q313.92188 344.16876 313.85938 345.1219ZM320.90625 349.45L320.90625 342.1844L322.01562 342.1844L322.01562 343.29376Q322.4375 342.5125 322.79688 342.27814Q323.15625 342.02814 323.59375 342.02814Q324.21875 342.02814 324.85938 342.41876L324.4375 343.5594Q323.98438 343.29376 323.53125 343.29376Q323.125 343.29376 322.79688 343.54376Q322.48438 343.77814 322.34375 344.21564Q322.14062 344.8719 322.14062 345.65314L322.14062 349.45L320.90625 349.45ZM329.46875 345.825Q329.46875 343.8094 330.59375 342.825Q331.51562 342.02814 332.875 342.02814Q334.35938 342.02814 335.3125 343.0125Q336.26562 343.98126 336.26562 345.71564Q336.26562 347.1219 335.84375 347.9344Q335.42188 348.73126 334.60938 349.1844Q333.8125 349.6219 332.875 349.6219Q331.34375 349.6219 330.40625 348.6375Q329.46875 347.65314 329.46875 345.825ZM330.73438 345.825Q330.73438 347.21564 331.34375 347.91876Q331.95312 348.60626 332.875 348.60626Q333.78125 348.60626 334.39062 347.90314Q335.0 347.2 335.0 345.77814Q335.0 344.4344 334.39062 343.7469Q333.78125 343.04376 332.875 343.04376Q331.95312 343.04376 331.34375 343.73126Q330.73438 344.41876 330.73438 345.825ZM338.21875 349.45L338.21875 343.15314L337.125 343.15314L337.125 342.1844L338.21875 342.1844L338.21875 341.41876Q338.21875 340.6844 338.34375 340.325Q338.53125 339.85626 338.96875 339.5594Q339.42188 339.2625 340.23438 339.2625Q340.75 339.2625 341.375 339.3875L341.1875 340.45Q340.8125 340.3875 340.46875 340.3875Q339.90625 340.3875 339.67188 340.6219Q339.4375 340.85626 339.4375 341.5125L339.4375 342.1844L340.85938 342.1844L340.85938 343.15314L339.4375 343.15314L339.4375 349.45L338.21875 349.45ZM350.89062 347.10626L352.17188 347.2625Q351.85938 348.3875 351.04688 349.0125Q350.23438 349.6219 348.96875 349.6219Q347.375 349.6219 346.4375 348.6375Q345.51562 347.65314 345.51562 345.8875Q345.51562 344.04376 346.45312 343.04376Q347.40625 342.02814 348.90625 342.02814Q350.35938 342.02814 351.28125 343.02814Q352.20312 344.0125 352.20312 345.8094Q352.20312 345.91876 352.20312 346.1375L346.78125 346.1375Q346.85938 347.325 347.45312 347.96564Q348.0625 348.60626 348.98438 348.60626Q349.65625 348.60626 350.125 348.2469Q350.60938 347.8875 350.89062 347.10626ZM346.85938 345.1219L350.90625 345.1219Q350.82812 344.2 350.4375 343.7469Q349.85938 343.04376 348.92188 343.04376Q348.0625 343.04376 347.48438 343.60626Q346.92188 344.16876 346.85938 345.1219ZM353.89062 349.45L353.89062 339.4344L355.125 339.4344L355.125 349.45L353.89062 349.45ZM361.89062 347.10626L363.17188 347.2625Q362.85938 348.3875 362.04688 349.0125Q361.23438 349.6219 359.96875 349.6219Q358.375 349.6219 357.4375 348.6375Q356.51562 347.65314 356.51562 345.8875Q356.51562 344.04376 357.45312 343.04376Q358.40625 342.02814 359.90625 342.02814Q361.35938 342.02814 362.28125 343.02814Q363.20312 344.0125 363.20312 345.8094Q363.20312 345.91876 363.20312 346.1375L357.78125 346.1375Q357.85938 347.325 358.45312 347.96564Q359.0625 348.60626 359.98438 348.60626Q360.65625 348.60626 361.125 348.2469Q361.60938 347.8875 361.89062 347.10626ZM357.85938 345.1219L361.90625 345.1219Q361.82812 344.2 361.4375 343.7469Q360.85938 343.04376 359.92188 343.04376Q359.0625 343.04376 358.48438 343.60626Q357.92188 344.16876 357.85938 345.1219ZM364.92188 349.45L364.92188 342.1844L366.03125 342.1844L366.03125 343.21564Q366.35938 342.66876 366.92188 342.35626Q367.5 342.02814 368.21875 342.02814Q369.03125 342.02814 369.54688 342.3719Q370.0625 342.7 370.28125 343.29376Q371.14062 342.02814 372.51562 342.02814Q373.59375 342.02814 374.17188 342.6219Q374.76562 343.21564 374.76562 344.46564L374.76562 349.45L373.53125 349.45L373.53125 344.8719Q373.53125 344.1375 373.40625 343.8094Q373.29688 343.48126 372.98438 343.29376Q372.67188 343.09064 372.25 343.09064Q371.48438 343.09064 370.96875 343.60626Q370.46875 344.10626 370.46875 345.23126L370.46875 349.45L369.23438 349.45L369.23438 344.73126Q369.23438 343.91876 368.9375 343.5125Q368.64062 343.09064 367.95312 343.09064Q367.4375 343.09064 366.98438 343.3719Q366.54688 343.6375 366.34375 344.16876Q366.15625 344.6844 366.15625 345.6844L366.15625 349.45L364.92188 349.45ZM380.89062 347.10626L382.17188 347.2625Q381.85938 348.3875 381.04688 349.0125Q380.23438 349.6219 378.96875 349.6219Q377.375 349.6219 376.4375 348.6375Q375.51562 347.65314 375.51562 345.8875Q375.51562 344.04376 376.45312 343.04376Q377.40625 342.02814 378.90625 342.02814Q380.35938 342.02814 381.28125 343.02814Q382.20312 344.0125 382.20312 345.8094Q382.20312 345.91876 382.20312 346.1375L376.78125 346.1375Q376.85938 347.325 377.45312 347.96564Q378.0625 348.60626 378.98438 348.60626Q379.65625 348.60626 380.125 348.2469Q380.60938 347.8875 380.89062 347.10626ZM376.85938 345.1219L380.90625 345.1219Q380.82812 344.2 380.4375 343.7469Q379.85938 343.04376 378.92188 343.04376Q378.0625 343.04376 377.48438 343.60626Q376.92188 344.16876 376.85938 345.1219ZM383.92188 349.45L383.92188 342.1844L385.03125 342.1844L385.03125 343.21564Q385.82812 342.02814 387.34375 342.02814Q388.0 342.02814 388.54688 342.2625Q389.09375 342.4969 389.35938 342.8875Q389.64062 343.2625 389.75 343.79376Q389.82812 344.1375 389.82812 344.98126L389.82812 349.45L388.59375 349.45L388.59375 345.02814Q388.59375 344.27814 388.45312 343.91876Q388.3125 343.54376 387.9375 343.325Q387.57812 343.09064 387.07812 343.09064Q386.29688 343.09064 385.71875 343.59064Q385.15625 344.09064 385.15625 345.48126L385.15625 349.45L383.92188 349.45ZM394.60938 348.35626L394.78125 349.4344Q394.26562 349.54376 393.85938 349.54376Q393.1875 349.54376 392.8125 349.34064Q392.45312 349.1219 392.29688 348.77814Q392.15625 348.4344 392.15625 347.325L392.15625 343.15314L391.25 343.15314L391.25 342.1844L392.15625 342.1844L392.15625 340.3875L393.375 339.65314L393.375 342.1844L394.60938 342.1844L394.60938 343.15314L393.375 343.15314L393.375 347.3875Q393.375 347.91876 393.4375 348.075Q393.5 348.21564 393.64062 348.3094Q393.79688 348.40314 394.0625 348.40314Q394.28125 348.40314 394.60938 348.35626ZM395.4375 347.27814L396.64062 347.09064Q396.75 347.825 397.21875 348.21564Q397.6875 348.60626 398.53125 348.60626Q399.375 348.60626 399.78125 348.2625Q400.20312 347.91876 400.20312 347.45Q400.20312 347.02814 399.82812 346.79376Q399.57812 346.6219 398.57812 346.3719Q397.21875 346.02814 396.6875 345.77814Q396.17188 345.52814 395.90625 345.09064Q395.64062 344.65314 395.64062 344.1219Q395.64062 343.6375 395.85938 343.23126Q396.07812 342.8094 396.46875 342.52814Q396.75 342.325 397.23438 342.1844Q397.73438 342.02814 398.3125 342.02814Q399.15625 342.02814 399.79688 342.27814Q400.45312 342.5125 400.76562 342.9344Q401.07812 343.35626 401.1875 344.0594L399.98438 344.23126Q399.90625 343.66876 399.5 343.35626Q399.10938 343.04376 398.39062 343.04376Q397.54688 343.04376 397.1875 343.325Q396.82812 343.59064 396.82812 343.98126Q396.82812 344.21564 396.96875 344.40314Q397.125 344.60626 397.45312 344.73126Q397.625 344.79376 398.53125 345.04376Q399.84375 345.40314 400.35938 345.6219Q400.875 345.84064 401.15625 346.2625Q401.45312 346.6844 401.45312 347.3094Q401.45312 347.9344 401.09375 348.48126Q400.75 349.0125 400.0625 349.325Q399.39062 349.6219 398.53125 349.6219Q397.125 349.6219 396.375 349.02814Q395.64062 348.4344 395.4375 347.27814Z" fill-rule="nonzero"/><path fill="#000000" d="M31.550013 231.62083L21.534388 231.62083L21.534388 230.26146L29.393763 224.99583L21.534388 224.99583L21.534388 223.71458L31.550013 223.71458L31.550013 225.07396L23.675013 230.33958L31.550013 230.33958L31.550013 231.62083ZM31.550013 217.99583L30.487513 217.99583Q31.721888 218.85521 31.721888 220.30833Q31.721888 220.94896 31.471888 221.51146Q31.221888 222.05833 30.846888 222.33958Q30.471888 222.60521 29.940638 222.71458Q29.581263 222.79271 28.784388 222.79271L24.284388 222.79271L24.284388 221.55833L28.315638 221.55833Q29.284388 221.55833 29.612513 221.48021Q30.096888 221.37083 30.378138 220.99583Q30.659388 220.62083 30.659388 220.05833Q30.659388 219.51146 30.378138 219.02708Q30.081263 218.54271 29.596888 218.33958Q29.112513 218.13646 28.175013 218.13646L24.284388 218.13646L24.284388 216.90208L31.550013 216.90208L31.550013 217.99583ZM31.550013 214.76146L24.284388 214.76146L24.284388 213.65208L25.315638 213.65208Q24.768763 213.32396 24.456263 212.76146Q24.128138 212.18333 24.128138 211.46458Q24.128138 210.65208 24.471888 210.13646Q24.800013 209.62083 25.393763 209.40208Q24.128138 208.54271 24.128138 207.16771Q24.128138 206.08958 24.721888 205.51146Q25.315638 204.91771 26.565638 204.91771L31.550013 204.91771L31.550013 206.15208L26.971888 206.15208Q26.237513 206.15208 25.909388 206.27708Q25.581263 206.38646 25.393763 206.69896Q25.190638 207.01146 25.190638 207.43333Q25.190638 208.19896 25.706263 208.71458Q26.206263 209.21458 27.331263 209.21458L31.550013 209.21458L31.550013 210.44896L26.831263 210.44896Q26.018763 210.44896 25.612513 210.74583Q25.190638 211.04271 25.190638 211.73021Q25.190638 212.24583 25.471888 212.69896Q25.737513 213.13646 26.268763 213.33958Q26.784388 213.52708 27.784388 213.52708L31.550013 213.52708L31.550013 214.76146ZM31.550013 202.62083L31.550013 203.76146L21.534388 203.76146L21.534388 202.54271L25.096888 202.54271Q24.128138 201.76146 24.128138 200.54271Q24.128138 199.87083 24.393763 199.27708Q24.659388 198.68333 25.159388 198.29271Q25.643763 197.90208 26.331263 197.68333Q27.018763 197.46458 27.815638 197.46458Q29.675013 197.46458 30.706263 198.40208Q31.721888 199.32396 31.721888 200.60521Q31.721888 201.88646 30.643763 202.62083L31.550013 202.62083ZM27.862513 202.63646Q29.175013 202.63646 29.753138 202.27708Q30.706263 201.69896 30.706263 200.71458Q30.706263 199.90208 30.003138 199.32396Q29.300013 198.73021 27.909388 198.73021Q26.487513 198.73021 25.815638 199.29271Q25.143763 199.85521 25.143763 200.65208Q25.143763 201.46458 25.846888 202.05833Q26.534388 202.63646 27.862513 202.63646ZM29.206263 190.79271L29.362513 189.51146Q30.487513 189.82396 31.112513 190.63646Q31.721888 191.44896 31.721888 192.71458Q31.721888 194.30833 30.737513 195.24583Q29.753138 196.16771 27.987513 196.16771Q26.143763 196.16771 25.143763 195.23021Q24.128138 194.27708 24.128138 192.77708Q24.128138 191.32396 25.128138 190.40208Q26.112513 189.48021 27.909388 189.48021Q28.018763 189.48021 28.237513 189.48021L28.237513 194.90208Q29.425013 194.82396 30.065638 194.23021Q30.706263 193.62083 30.706263 192.69896Q30.706263 192.02708 30.346888 191.55833Q29.987513 191.07396 29.206263 190.79271ZM27.221888 194.82396L27.221888 190.77708Q26.300013 190.85521 25.846888 191.24583Q25.143763 191.82396 25.143763 192.76146Q25.143763 193.62083 25.706263 194.19896Q26.268763 194.76146 27.221888 194.82396ZM31.550013 187.77708L24.284388 187.77708L24.284388 186.66771L25.393763 186.66771Q24.612513 186.24583 24.378138 185.88646Q24.128138 185.52708 24.128138 185.08958Q24.128138 184.46458 24.518763 183.82396L25.659388 184.24583Q25.393763 184.69896 25.393763 185.15208Q25.393763 185.55833 25.643763 185.88646Q25.878138 186.19896 26.315638 186.33958Q26.971888 186.54271 27.753138 186.54271L31.550013 186.54271L31.550013 187.77708ZM27.925013 179.21458Q25.909388 179.21458 24.925013 178.08958Q24.128138 177.16771 24.128138 175.80833Q24.128138 174.32396 25.112513 173.37083Q26.081263 172.41771 27.815638 172.41771Q29.221888 172.41771 30.034388 172.83958Q30.831263 173.26146 31.284388 174.07396Q31.721888 174.87083 31.721888 175.80833Q31.721888 177.33958 30.737513 178.27708Q29.753138 179.21458 27.925013 179.21458ZM27.925013 177.94896Q29.315638 177.94896 30.018763 177.33958Q30.706263 176.73021 30.706263 175.80833Q30.706263 174.90208 30.003138 174.29271Q29.300013 173.68333 27.878138 173.68333Q26.534388 173.68333 25.846888 174.29271Q25.143763 174.90208 25.143763 175.80833Q25.143763 176.73021 25.831263 177.33958Q26.518763 177.94896 27.925013 177.94896ZM31.550013 170.46458L25.253138 170.46458L25.253138 171.55833L24.284388 171.55833L24.284388 170.46458L23.518763 170.46458Q22.784388 170.46458 22.425013 170.33958Q21.956263 170.15208 21.659388 169.71458Q21.362513 169.26146 21.362513 168.44896Q21.362513 167.93333 21.487513 167.30833L22.550013 167.49583Q22.487513 167.87083 22.487513 168.21458Q22.487513 168.77708 22.721888 169.01146Q22.956263 169.24583 23.612513 169.24583L24.284388 169.24583L24.284388 167.82396L25.253138 167.82396L25.253138 169.24583L31.550013 169.24583L31.550013 170.46458ZM29.378138 163.24583L29.190638 162.04271Q29.925013 161.93333 30.315638 161.46458Q30.706263 160.99583 30.706263 160.15208Q30.706263 159.30833 30.362513 158.90208Q30.018763 158.48021 29.550013 158.48021Q29.128138 158.48021 28.893763 158.85521Q28.721888 159.10521 28.471888 160.10521Q28.128138 161.46458 27.878138 161.99583Q27.628138 162.51146 27.190638 162.77708Q26.753138 163.04271 26.221888 163.04271Q25.737513 163.04271 25.331263 162.82396Q24.909388 162.60521 24.628138 162.21458Q24.425013 161.93333 24.284388 161.44896Q24.128138 160.94896 24.128138 160.37083Q24.128138 159.52708 24.378138 158.88646Q24.612513 158.23021 25.034388 157.91771Q25.456263 157.60521 26.159388 157.49583L26.331263 158.69896Q25.768763 158.77708 25.456263 159.18333Q25.143763 159.57396 25.143763 160.29271Q25.143763 161.13646 25.425013 161.49583Q25.690638 161.85521 26.081263 161.85521Q26.315638 161.85521 26.503138 161.71458Q26.706263 161.55833 26.831263 161.23021Q26.893763 161.05833 27.143763 160.15208Q27.503138 158.83958 27.721888 158.32396Q27.940638 157.80833 28.362513 157.52708Q28.784388 157.23021 29.409388 157.23021Q30.034388 157.23021 30.581263 157.58958Q31.112513 157.93333 31.425013 158.62083Q31.721888 159.29271 31.721888 160.15208Q31.721888 161.55833 31.128138 162.30833Q30.534388 163.04271 29.378138 163.24583ZM30.456263 153.07396L31.534388 152.90208Q31.643763 153.41771 31.643763 153.82396Q31.643763 154.49583 31.440638 154.87083Q31.221888 155.23021 30.878138 155.38646Q30.534388 155.52708 29.425013 155.52708L25.253138 155.52708L25.253138 156.43333L24.284388 156.43333L24.284388 155.52708L22.487513 155.52708L21.753138 154.30833L24.284388 154.30833L24.284388 153.07396L25.253138 153.07396L25.253138 154.30833L29.487513 154.30833Q30.018763 154.30833 30.175013 154.24583Q30.315638 154.18333 30.409388 154.04271Q30.503138 153.88646 30.503138 153.62083Q30.503138 153.40208 30.456263 153.07396ZM29.206263 146.79271L29.362513 145.51146Q30.487513 145.82396 31.112513 146.63646Q31.721888 147.44896 31.721888 148.71458Q31.721888 150.30833 30.737513 151.24583Q29.753138 152.16771 27.987513 152.16771Q26.143763 152.16771 25.143763 151.23021Q24.128138 150.27708 24.128138 148.77708Q24.128138 147.32396 25.128138 146.40208Q26.112513 145.48021 27.909388 145.48021Q28.018763 145.48021 28.237513 145.48021L28.237513 150.90208Q29.425013 150.82396 30.065638 150.23021Q30.706263 149.62083 30.706263 148.69896Q30.706263 148.02708 30.346888 147.55833Q29.987513 147.07396 29.206263 146.79271ZM27.221888 150.82396L27.221888 146.77708Q26.300013 146.85521 25.846888 147.24583Q25.143763 147.82396 25.143763 148.76146Q25.143763 149.62083 25.706263 150.19896Q26.268763 150.76146 27.221888 150.82396ZM34.33126 143.76146L24.284388 143.76146L24.284388 142.63646L25.237513 142.63646Q24.675013 142.24583 24.409388 141.74583Q24.128138 141.24583 24.128138 140.52708Q24.128138 139.60521 24.612513 138.90208Q25.081263 138.18333 25.956263 137.82396Q26.831263 137.46458 27.862513 137.46458Q28.971888 137.46458 29.878138 137.87083Q30.768763 138.26146 31.253138 139.02708Q31.721888 139.77708 31.721888 140.62083Q31.721888 141.23021 31.456263 141.73021Q31.190638 142.21458 30.800013 142.52708L34.33126 142.52708L34.33126 143.76146ZM27.956263 142.65208Q29.362513 142.65208 30.034388 142.08958Q30.706263 141.51146 30.706263 140.69896Q30.706263 139.88646 30.018763 139.30833Q29.315638 138.71458 27.862513 138.71458Q26.471888 138.71458 25.784388 139.29271Q25.096888 139.85521 25.096888 140.65208Q25.096888 141.43333 25.831263 142.04271Q26.565638 142.65208 27.956263 142.65208ZM29.378138 136.24583L29.190638 135.04271Q29.925013 134.93333 30.315638 134.46458Q30.706263 133.99583 30.706263 133.15208Q30.706263 132.30833 30.362513 131.90208Q30.018763 131.48021 29.550013 131.48021Q29.128138 131.48021 28.893763 131.85521Q28.721888 132.10521 28.471888 133.10521Q28.128138 134.46458 27.878138 134.99583Q27.628138 135.51146 27.190638 135.77708Q26.753138 136.04271 26.221888 136.04271Q25.737513 136.04271 25.331263 135.82396Q24.909388 135.60521 24.628138 135.21458Q24.425013 134.93333 24.284388 134.44896Q24.128138 133.94896 24.128138 133.37083Q24.128138 132.52708 24.378138 131.88646Q24.612513 131.23021 25.034388 130.91771Q25.456263 130.60521 26.159388 130.49583L26.331263 131.69896Q25.768763 131.77708 25.456263 132.18333Q25.143763 132.57396 25.143763 133.29271Q25.143763 134.13646 25.425013 134.49583Q25.690638 134.85521 26.081263 134.85521Q26.315638 134.85521 26.503138 134.71458Q26.706263 134.55833 26.831263 134.23021Q26.893763 134.05833 27.143763 133.15208Q27.503138 131.83958 27.721888 131.32396Q27.940638 130.80833 28.362513 130.52708Q28.784388 130.23021 29.409388 130.23021Q30.034388 130.23021 30.581263 130.58958Q31.112513 130.93333 31.425013 131.62083Q31.721888 132.29271 31.721888 133.15208Q31.721888 134.55833 31.128138 135.30833Q30.534388 136.04271 29.378138 136.24583Z" fill-rule="nonzero"/><path fill="#000000" d="M84.05 295.21564Q84.05 293.6844 84.3625 292.7625Q84.675 291.825 85.28438 291.325Q85.90938 290.825 86.84688 290.825Q87.53438 290.825 88.05 291.10626Q88.58125 291.3875 88.925 291.91876Q89.26875 292.4344 89.45625 293.1844Q89.64375 293.9344 89.64375 295.21564Q89.64375 296.73126 89.33125 297.65314Q89.03438 298.575 88.40938 299.09064Q87.8 299.59064 86.84688 299.59064Q85.6125 299.59064 84.89375 298.7Q84.05 297.6375 84.05 295.21564ZM85.12813 295.21564Q85.12813 297.325 85.62813 298.02814Q86.12813 298.73126 86.84688 298.73126Q87.58125 298.73126 88.06563 298.02814Q88.56563 297.325 88.56563 295.21564Q88.56563 293.09064 88.06563 292.40314Q87.58125 291.7 86.83125 291.7Q86.1125 291.7 85.675 292.3094Q85.12813 293.09064 85.12813 295.21564Z" fill-rule="nonzero"/><path fill="#000000" d="M63.05 248.89333L64.15938 248.79958Q64.28438 249.61208 64.72188 250.01833Q65.175 250.42458 65.81563 250.42458Q66.56563 250.42458 67.09688 249.84645Q67.62813 249.26833 67.62813 248.33083Q67.62813 247.42458 67.1125 246.90895Q66.6125 246.3777 65.78438 246.3777Q65.28438 246.3777 64.8625 246.61208Q64.45625 246.84645 64.22188 247.20583L63.2375 247.08083L64.06563 242.67458L68.34688 242.67458L68.34688 243.67458L64.90938 243.67458L64.45625 245.98708Q65.22188 245.4402 66.06563 245.4402Q67.19063 245.4402 67.95625 246.22145Q68.7375 247.0027 68.7375 248.23708Q68.7375 249.39333 68.06563 250.2527Q67.2375 251.28395 65.81563 251.28395Q64.64375 251.28395 63.89375 250.6277Q63.159374 249.97145 63.05 248.89333ZM70.05 246.90895Q70.05 245.3777 70.3625 244.45583Q70.675 243.51833 71.28438 243.01833Q71.90938 242.51833 72.84688 242.51833Q73.53438 242.51833 74.05 242.79958Q74.58125 243.08083 74.925 243.61208Q75.26875 244.1277 75.45625 244.8777Q75.64375 245.6277 75.64375 246.90895Q75.64375 248.42458 75.33125 249.34645Q75.03438 250.26833 74.40938 250.78395Q73.8 251.28395 72.84688 251.28395Q71.6125 251.28395 70.89375 250.39333Q70.05 249.33083 70.05 246.90895ZM71.12813 246.90895Q71.12813 249.01833 71.62813 249.72145Q72.12813 250.42458 72.84688 250.42458Q73.58125 250.42458 74.06563 249.72145Q74.56563 249.01833 74.56563 246.90895Q74.56563 244.78395 74.06563 244.09645Q73.58125 243.39333 72.83125 243.39333Q72.1125 243.39333 71.675 244.0027Q71.12813 244.78395 71.12813 246.90895ZM77.05 246.90895Q77.05 245.3777 77.3625 244.45583Q77.675 243.51833 78.28438 243.01833Q78.90938 242.51833 79.84688 242.51833Q80.53438 242.51833 81.05 242.79958Q81.58125 243.08083 81.925 243.61208Q82.26875 244.1277 82.45625 244.8777Q82.64375 245.6277 82.64375 246.90895Q82.64375 248.42458 82.33125 249.34645Q82.03438 250.26833 81.40938 250.78395Q80.8 251.28395 79.84688 251.28395Q78.6125 251.28395 77.89375 250.39333Q77.05 249.33083 77.05 246.90895ZM78.12813 246.90895Q78.12813 249.01833 78.62813 249.72145Q79.12813 250.42458 79.84688 250.42458Q80.58125 250.42458 81.06563 249.72145Q81.56563 249.01833 81.56563 246.90895Q81.56563 244.78395 81.06563 244.09645Q80.58125 243.39333 79.83125 243.39333Q79.1125 243.39333 78.675 244.0027Q78.12813 244.78395 78.12813 246.90895ZM84.05 246.90895Q84.05 245.3777 84.3625 244.45583Q84.675 243.51833 85.28438 243.01833Q85.90938 242.51833 86.84688 242.51833Q87.53438 242.51833 88.05 242.79958Q88.58125 243.08083 88.925 243.61208Q89.26875 244.1277 89.45625 244.8777Q89.64375 245.6277 89.64375 246.90895Q89.64375 248.42458 89.33125 249.34645Q89.03438 250.26833 88.40938 250.78395Q87.8 251.28395 86.84688 251.28395Q85.6125 251.28395 84.89375 250.39333Q84.05 249.33083 84.05 246.90895ZM85.12813 246.90895Q85.12813 249.01833 85.62813 249.72145Q86.12813 250.42458 86.84688 250.42458Q87.58125 250.42458 88.06563 249.72145Q88.56563 249.01833 88.56563 246.90895Q88.56563 244.78395 88.06563 244.09645Q87.58125 243.39333 86.83125 243.39333Q86.1125 243.39333 85.675 244.0027Q85.12813 244.78395 85.12813 246.90895Z" fill-rule="nonzero"/><path fill="#000000" d="M60.01875 202.83667L58.971874 202.83667L58.971874 196.11792Q58.58125 196.4773 57.95625 196.8523Q57.346874 197.21167 56.8625 197.38354L56.8625 196.36792Q57.7375 195.94604 58.39375 195.36792Q59.065624 194.77417 59.346874 194.21167L60.01875 194.21167L60.01875 202.83667ZM63.05 198.6023Q63.05 197.07104 63.3625 196.14917Q63.675 195.21167 64.28438 194.71167Q64.90938 194.21167 65.84688 194.21167Q66.53438 194.21167 67.05 194.49292Q67.58125 194.77417 67.925 195.30542Q68.26875 195.82104 68.45625 196.57104Q68.64375 197.32104 68.64375 198.6023Q68.64375 200.11792 68.33125 201.0398Q68.03438 201.96167 67.40938 202.4773Q66.8 202.9773 65.84688 202.9773Q64.6125 202.9773 63.89375 202.08667Q63.05 201.02417 63.05 198.6023ZM64.12813 198.6023Q64.12813 200.71167 64.62813 201.4148Q65.12813 202.11792 65.84688 202.11792Q66.58125 202.11792 67.06563 201.4148Q67.56563 200.71167 67.56563 198.6023Q67.56563 196.4773 67.06563 195.7898Q66.58125 195.08667 65.83125 195.08667Q65.1125 195.08667 64.675 195.69604Q64.12813 196.4773 64.12813 198.6023ZM70.05 198.6023Q70.05 197.07104 70.3625 196.14917Q70.675 195.21167 71.28438 194.71167Q71.90938 194.21167 72.84688 194.21167Q73.53438 194.21167 74.05 194.49292Q74.58125 194.77417 74.925 195.30542Q75.26875 195.82104 75.45625 196.57104Q75.64375 197.32104 75.64375 198.6023Q75.64375 200.11792 75.33125 201.0398Q75.03438 201.96167 74.40938 202.4773Q73.8 202.9773 72.84688 202.9773Q71.6125 202.9773 70.89375 202.08667Q70.05 201.02417 70.05 198.6023ZM71.12813 198.6023Q71.12813 200.71167 71.62813 201.4148Q72.12813 202.11792 72.84688 202.11792Q73.58125 202.11792 74.06563 201.4148Q74.56563 200.71167 74.56563 198.6023Q74.56563 196.4773 74.06563 195.7898Q73.58125 195.08667 72.83125 195.08667Q72.1125 195.08667 71.675 195.69604Q71.12813 196.4773 71.12813 198.6023ZM77.05 198.6023Q77.05 197.07104 77.3625 196.14917Q77.675 195.21167 78.28438 194.71167Q78.90938 194.21167 79.84688 194.21167Q80.53438 194.21167 81.05 194.49292Q81.58125 194.77417 81.925 195.30542Q82.26875 195.82104 82.45625 196.57104Q82.64375 197.32104 82.64375 198.6023Q82.64375 200.11792 82.33125 201.0398Q82.03438 201.96167 81.40938 202.4773Q80.8 202.9773 79.84688 202.9773Q78.6125 202.9773 77.89375 202.08667Q77.05 201.02417 77.05 198.6023ZM78.12813 198.6023Q78.12813 200.71167 78.62813 201.4148Q79.12813 202.11792 79.84688 202.11792Q80.58125 202.11792 81.06563 201.4148Q81.56563 200.71167 81.56563 198.6023Q81.56563 196.4773 81.06563 195.7898Q80.58125 195.08667 79.83125 195.08667Q79.1125 195.08667 78.675 195.69604Q78.12813 196.4773 78.12813 198.6023ZM84.05 198.6023Q84.05 197.07104 84.3625 196.14917Q84.675 195.21167 85.28438 194.71167Q85.90938 194.21167 86.84688 194.21167Q87.53438 194.21167 88.05 194.49292Q88.58125 194.77417 88.925 195.30542Q89.26875 195.82104 89.45625 196.57104Q89.64375 197.32104 89.64375 198.6023Q89.64375 200.11792 89.33125 201.0398Q89.03438 201.96167 88.40938 202.4773Q87.8 202.9773 86.84688 202.9773Q85.6125 202.9773 84.89375 202.08667Q84.05 201.02417 84.05 198.6023ZM85.12813 198.6023Q85.12813 200.71167 85.62813 201.4148Q86.12813 202.11792 86.84688 202.11792Q87.58125 202.11792 88.06563 201.4148Q88.56563 200.71167 88.56563 198.6023Q88.56563 196.4773 88.06563 195.7898Q87.58125 195.08667 86.83125 195.08667Q86.1125 195.08667 85.675 195.69604Q85.12813 196.4773 85.12813 198.6023Z" fill-rule="nonzero"/><path fill="#000000" d="M60.01875 154.53L58.971874 154.53L58.971874 147.81125Q58.58125 148.17062 57.95625 148.54562Q57.346874 148.905 56.8625 149.07687L56.8625 148.06125Q57.7375 147.63937 58.39375 147.06125Q59.065624 146.4675 59.346874 145.905L60.01875 145.905L60.01875 154.53ZM63.05 152.28L64.15938 152.18625Q64.28438 152.99875 64.72188 153.405Q65.175 153.81125 65.81563 153.81125Q66.56563 153.81125 67.09688 153.23312Q67.62813 152.655 67.62813 151.7175Q67.62813 150.81125 67.1125 150.29562Q66.6125 149.76437 65.78438 149.76437Q65.28438 149.76437 64.8625 149.99875Q64.45625 150.23312 64.22188 150.5925L63.2375 150.4675L64.06563 146.06125L68.34688 146.06125L68.34688 147.06125L64.90938 147.06125L64.45625 149.37375Q65.22188 148.82687 66.06563 148.82687Q67.19063 148.82687 67.95625 149.60812Q68.7375 150.38937 68.7375 151.62375Q68.7375 152.78 68.06563 153.63937Q67.2375 154.67062 65.81563 154.67062Q64.64375 154.67062 63.89375 154.01437Q63.159374 153.35812 63.05 152.28ZM70.05 150.29562Q70.05 148.76437 70.3625 147.8425Q70.675 146.905 71.28438 146.405Q71.90938 145.905 72.84688 145.905Q73.53438 145.905 74.05 146.18625Q74.58125 146.4675 74.925 146.99875Q75.26875 147.51437 75.45625 148.26437Q75.64375 149.01437 75.64375 150.29562Q75.64375 151.81125 75.33125 152.73312Q75.03438 153.655 74.40938 154.17062Q73.8 154.67062 72.84688 154.67062Q71.6125 154.67062 70.89375 153.78Q70.05 152.7175 70.05 150.29562ZM71.12813 150.29562Q71.12813 152.405 71.62813 153.10812Q72.12813 153.81125 72.84688 153.81125Q73.58125 153.81125 74.06563 153.10812Q74.56563 152.405 74.56563 150.29562Q74.56563 148.17062 74.06563 147.48312Q73.58125 146.78 72.83125 146.78Q72.1125 146.78 71.675 147.38937Q71.12813 148.17062 71.12813 150.29562ZM77.05 150.29562Q77.05 148.76437 77.3625 147.8425Q77.675 146.905 78.28438 146.405Q78.90938 145.905 79.84688 145.905Q80.53438 145.905 81.05 146.18625Q81.58125 146.4675 81.925 146.99875Q82.26875 147.51437 82.45625 148.26437Q82.64375 149.01437 82.64375 150.29562Q82.64375 151.81125 82.33125 152.73312Q82.03438 153.655 81.40938 154.17062Q80.8 154.67062 79.84688 154.67062Q78.6125 154.67062 77.89375 153.78Q77.05 152.7175 77.05 150.29562ZM78.12813 150.29562Q78.12813 152.405 78.62813 153.10812Q79.12813 153.81125 79.84688 153.81125Q80.58125 153.81125 81.06563 153.10812Q81.56563 152.405 81.56563 150.29562Q81.56563 148.17062 81.06563 147.48312Q80.58125 146.78 79.83125 146.78Q79.1125 146.78 78.675 147.38937Q78.12813 148.17062 78.12813 150.29562ZM84.05 150.29562Q84.05 148.76437 84.3625 147.8425Q84.675 146.905 85.28438 146.405Q85.90938 145.905 86.84688 145.905Q87.53438 145.905 88.05 146.18625Q88.58125 146.4675 88.925 146.99875Q89.26875 147.51437 89.45625 148.26437Q89.64375 149.01437 89.64375 150.29562Q89.64375 151.81125 89.33125 152.73312Q89.03438 153.655 88.40938 154.17062Q87.8 154.67062 86.84688 154.67062Q85.6125 154.67062 84.89375 153.78Q84.05 152.7175 84.05 150.29562ZM85.12813 150.29562Q85.12813 152.405 85.62813 153.10812Q86.12813 153.81125 86.84688 153.81125Q87.58125 153.81125 88.06563 153.10812Q88.56563 152.405 88.56563 150.29562Q88.56563 148.17062 88.06563 147.48312Q87.58125 146.78 86.83125 146.78Q86.1125 146.78 85.675 147.38937Q85.12813 148.17062 85.12813 150.29562Z" fill-rule="nonzero"/><path fill="#000000" d="M61.596874 105.20771L61.596874 106.223335L55.909374 106.223335Q55.909374 105.848335 56.034374 105.48896Q56.253124 104.910835 56.721874 104.348335Q57.20625 103.785835 58.1125 103.05146Q59.51875 101.89521 60.003124 101.223335Q60.503124 100.55146 60.503124 99.95771Q60.503124 99.33271 60.05 98.910835Q59.596874 98.473335 58.878124 98.473335Q58.1125 98.473335 57.659374 98.92646Q57.20625 99.379585 57.190624 100.192085L56.1125 100.08271Q56.221874 98.86396 56.940624 98.23896Q57.675 97.598335 58.909374 97.598335Q60.14375 97.598335 60.8625 98.285835Q61.58125 98.973335 61.58125 99.98896Q61.58125 100.504585 61.3625 101.004585Q61.159374 101.48896 60.659374 102.05146Q60.175 102.598335 59.05 103.55146Q58.096874 104.348335 57.815624 104.64521Q57.55 104.92646 57.378124 105.20771L61.596874 105.20771ZM63.05 101.98896Q63.05 100.45771 63.3625 99.535835Q63.675 98.598335 64.28438 98.098335Q64.90938 97.598335 65.84688 97.598335Q66.53438 97.598335 67.05 97.879585Q67.58125 98.160835 67.925 98.692085Q68.26875 99.20771 68.45625 99.95771Q68.64375 100.70771 68.64375 101.98896Q68.64375 103.504585 68.33125 104.42646Q68.03438 105.348335 67.40938 105.86396Q66.8 106.36396 65.84688 106.36396Q64.6125 106.36396 63.89375 105.473335Q63.05 104.410835 63.05 101.98896ZM64.12813 101.98896Q64.12813 104.098335 64.62813 104.80146Q65.12813 105.504585 65.84688 105.504585Q66.58125 105.504585 67.06563 104.80146Q67.56563 104.098335 67.56563 101.98896Q67.56563 99.86396 67.06563 99.17646Q66.58125 98.473335 65.83125 98.473335Q65.1125 98.473335 64.675 99.08271Q64.12813 99.86396 64.12813 101.98896ZM70.05 101.98896Q70.05 100.45771 70.3625 99.535835Q70.675 98.598335 71.28438 98.098335Q71.90938 97.598335 72.84688 97.598335Q73.53438 97.598335 74.05 97.879585Q74.58125 98.160835 74.925 98.692085Q75.26875 99.20771 75.45625 99.95771Q75.64375 100.70771 75.64375 101.98896Q75.64375 103.504585 75.33125 104.42646Q75.03438 105.348335 74.40938 105.86396Q73.8 106.36396 72.84688 106.36396Q71.6125 106.36396 70.89375 105.473335Q70.05 104.410835 70.05 101.98896ZM71.12813 101.98896Q71.12813 104.098335 71.62813 104.80146Q72.12813 105.504585 72.84688 105.504585Q73.58125 105.504585 74.06563 104.80146Q74.56563 104.098335 74.56563 101.98896Q74.56563 99.86396 74.06563 99.17646Q73.58125 98.473335 72.83125 98.473335Q72.1125 98.473335 71.675 99.08271Q71.12813 99.86396 71.12813 101.98896ZM77.05 101.98896Q77.05 100.45771 77.3625 99.535835Q77.675 98.598335 78.28438 98.098335Q78.90938 97.598335 79.84688 97.598335Q80.53438 97.598335 81.05 97.879585Q81.58125 98.160835 81.925 98.692085Q82.26875 99.20771 82.45625 99.95771Q82.64375 100.70771 82.64375 101.98896Q82.64375 103.504585 82.33125 104.42646Q82.03438 105.348335 81.40938 105.86396Q80.8 106.36396 79.84688 106.36396Q78.6125 106.36396 77.89375 105.473335Q77.05 104.410835 77.05 101.98896ZM78.12813 101.98896Q78.12813 104.098335 78.62813 104.80146Q79.12813 105.504585 79.84688 105.504585Q80.58125 105.504585 81.06563 104.80146Q81.56563 104.098335 81.56563 101.98896Q81.56563 99.86396 81.06563 99.17646Q80.58125 98.473335 79.83125 98.473335Q79.1125 98.473335 78.675 99.08271Q78.12813 99.86396 78.12813 101.98896ZM84.05 101.98896Q84.05 100.45771 84.3625 99.535835Q84.675 98.598335 85.28438 98.098335Q85.90938 97.598335 86.84688 97.598335Q87.53438 97.598335 88.05 97.879585Q88.58125 98.160835 88.925 98.692085Q89.26875 99.20771 89.45625 99.95771Q89.64375 100.70771 89.64375 101.98896Q89.64375 103.504585 89.33125 104.42646Q89.03438 105.348335 88.40938 105.86396Q87.8 106.36396 86.84688 106.36396Q85.6125 106.36396 84.89375 105.473335Q84.05 104.410835 84.05 101.98896ZM85.12813 101.98896Q85.12813 104.098335 85.62813 104.80146Q86.12813 105.504585 86.84688 105.504585Q87.58125 105.504585 88.06563 104.80146Q88.56563 104.098335 88.56563 101.98896Q88.56563 99.86396 88.06563 99.17646Q87.58125 98.473335 86.83125 98.473335Q86.1125 98.473335 85.675 99.08271Q85.12813 99.86396 85.12813 101.98896Z" fill-rule="nonzero"/><path fill="#000000" d="M61.596874 56.901043L61.596874 57.916668L55.909374 57.916668Q55.909374 57.541668 56.034374 57.182293Q56.253124 56.604168 56.721874 56.041668Q57.20625 55.479168 58.1125 54.744793Q59.51875 53.588543 60.003124 52.916668Q60.503124 52.244793 60.503124 51.651043Q60.503124 51.026043 60.05 50.604168Q59.596874 50.166668 58.878124 50.166668Q58.1125 50.166668 57.659374 50.619793Q57.20625 51.072918 57.190624 51.885418L56.1125 51.776043Q56.221874 50.557293 56.940624 49.932293Q57.675 49.291668 58.909374 49.291668Q60.14375 49.291668 60.8625 49.979168Q61.58125 50.666668 61.58125 51.682293Q61.58125 52.197918 61.3625 52.697918Q61.159374 53.182293 60.659374 53.744793Q60.175 54.291668 59.05 55.244793Q58.096874 56.041668 57.815624 56.338543Q57.55 56.619793 57.378124 56.901043L61.596874 56.901043ZM63.05 55.666668L64.15938 55.572918Q64.28438 56.385418 64.72188 56.791668Q65.175 57.197918 65.81563 57.197918Q66.56563 57.197918 67.09688 56.619793Q67.62813 56.041668 67.62813 55.104168Q67.62813 54.197918 67.1125 53.682293Q66.6125 53.151043 65.78438 53.151043Q65.28438 53.151043 64.8625 53.385418Q64.45625 53.619793 64.22188 53.979168L63.2375 53.854168L64.06563 49.447918L68.34688 49.447918L68.34688 50.447918L64.90938 50.447918L64.45625 52.760418Q65.22188 52.213543 66.06563 52.213543Q67.19063 52.213543 67.95625 52.994793Q68.7375 53.776043 68.7375 55.010418Q68.7375 56.166668 68.06563 57.026043Q67.2375 58.057293 65.81563 58.057293Q64.64375 58.057293 63.89375 57.401043Q63.159374 56.744793 63.05 55.666668ZM70.05 53.682293Q70.05 52.151043 70.3625 51.229168Q70.675 50.291668 71.28438 49.791668Q71.90938 49.291668 72.84688 49.291668Q73.53438 49.291668 74.05 49.572918Q74.58125 49.854168 74.925 50.385418Q75.26875 50.901043 75.45625 51.651043Q75.64375 52.401043 75.64375 53.682293Q75.64375 55.197918 75.33125 56.119793Q75.03438 57.041668 74.40938 57.557293Q73.8 58.057293 72.84688 58.057293Q71.6125 58.057293 70.89375 57.166668Q70.05 56.104168 70.05 53.682293ZM71.12813 53.682293Q71.12813 55.791668 71.62813 56.494793Q72.12813 57.197918 72.84688 57.197918Q73.58125 57.197918 74.06563 56.494793Q74.56563 55.791668 74.56563 53.682293Q74.56563 51.557293 74.06563 50.869793Q73.58125 50.166668 72.83125 50.166668Q72.1125 50.166668 71.675 50.776043Q71.12813 51.557293 71.12813 53.682293ZM77.05 53.682293Q77.05 52.151043 77.3625 51.229168Q77.675 50.291668 78.28438 49.791668Q78.90938 49.291668 79.84688 49.291668Q80.53438 49.291668 81.05 49.572918Q81.58125 49.854168 81.925 50.385418Q82.26875 50.901043 82.45625 51.651043Q82.64375 52.401043 82.64375 53.682293Q82.64375 55.197918 82.33125 56.119793Q82.03438 57.041668 81.40938 57.557293Q80.8 58.057293 79.84688 58.057293Q78.6125 58.057293 77.89375 57.166668Q77.05 56.104168 77.05 53.682293ZM78.12813 53.682293Q78.12813 55.791668 78.62813 56.494793Q79.12813 57.197918 79.84688 57.197918Q80.58125 57.197918 81.06563 56.494793Q81.56563 55.791668 81.56563 53.682293Q81.56563 51.557293 81.06563 50.869793Q80.58125 50.166668 79.83125 50.166668Q79.1125 50.166668 78.675 50.776043Q78.12813 51.557293 78.12813 53.682293ZM84.05 53.682293Q84.05 52.151043 84.3625 51.229168Q84.675 50.291668 85.28438 49.791668Q85.90938 49.291668 86.84688 49.291668Q87.53438 49.291668 88.05 49.572918Q88.58125 49.854168 88.925 50.385418Q89.26875 50.901043 89.45625 51.651043Q89.64375 52.401043 89.64375 53.682293Q89.64375 55.197918 89.33125 56.119793Q89.03438 57.041668 88.40938 57.557293Q87.8 58.057293 86.84688 58.057293Q85.6125 58.057293 84.89375 57.166668Q84.05 56.104168 84.05 53.682293ZM85.12813 53.682293Q85.12813 55.791668 85.62813 56.494793Q86.12813 57.197918 86.84688 57.197918Q87.58125 57.197918 88.06563 56.494793Q88.56563 55.791668 88.56563 53.682293Q88.56563 51.557293 88.06563 50.869793Q87.58125 50.166668 86.83125 50.166668Q86.1125 50.166668 85.675 50.776043Q85.12813 51.557293 85.12813 53.682293Z" fill-rule="nonzero"/><path fill="#000000" d="M147.55045 311.4344L147.55045 312.45L141.86295 312.45Q141.86295 312.075 141.98795 311.71564Q142.2067 311.1375 142.67545 310.575Q143.15982 310.0125 144.06607 309.27814Q145.47232 308.1219 145.9567 307.45Q146.4567 306.77814 146.4567 306.1844Q146.4567 305.5594 146.00357 305.1375Q145.55045 304.7 144.8317 304.7Q144.06607 304.7 143.61295 305.15314Q143.15982 305.60626 143.1442 306.41876L142.06607 306.3094Q142.17545 305.09064 142.8942 304.46564Q143.62857 303.825 144.86295 303.825Q146.09732 303.825 146.81607 304.5125Q147.53482 305.2 147.53482 306.21564Q147.53482 306.73126 147.31607 307.23126Q147.11295 307.71564 146.61295 308.27814Q146.12857 308.825 145.00357 309.77814Q144.05045 310.575 143.7692 310.8719Q143.50357 311.15314 143.3317 311.4344L147.55045 311.4344ZM149.00357 310.2L150.11295 310.10626Q150.23795 310.91876 150.67545 311.325Q151.12857 311.73126 151.7692 311.73126Q152.5192 311.73126 153.05045 311.15314Q153.5817 310.575 153.5817 309.6375Q153.5817 308.73126 153.06607 308.21564Q152.56607 307.6844 151.73795 307.6844Q151.23795 307.6844 150.81607 307.91876Q150.40982 308.15314 150.17545 308.5125L149.19107 308.3875L150.0192 303.98126L154.30045 303.98126L154.30045 304.98126L150.86295 304.98126L150.40982 307.29376Q151.17545 306.7469 152.0192 306.7469Q153.1442 306.7469 153.90982 307.52814Q154.69107 308.3094 154.69107 309.54376Q154.69107 310.7 154.0192 311.5594Q153.19107 312.59064 151.7692 312.59064Q150.59732 312.59064 149.84732 311.9344Q149.11295 311.27814 149.00357 310.2Z" fill-rule="nonzero"/><path fill="#000000" d="M228.59285 310.2L229.70222 310.10626Q229.82722 310.91876 230.26472 311.325Q230.71785 311.73126 231.35847 311.73126Q232.10847 311.73126 232.63972 311.15314Q233.17097 310.575 233.17097 309.6375Q233.17097 308.73126 232.65535 308.21564Q232.15535 307.6844 231.32722 307.6844Q230.82722 307.6844 230.40535 307.91876Q229.9991 308.15314 229.76472 308.5125L228.78035 308.3875L229.60847 303.98126L233.88972 303.98126L233.88972 304.98126L230.45222 304.98126L229.9991 307.29376Q230.76472 306.7469 231.60847 306.7469Q232.73347 306.7469 233.4991 307.52814Q234.28035 308.3094 234.28035 309.54376Q234.28035 310.7 233.60847 311.5594Q232.78035 312.59064 231.35847 312.59064Q230.1866 312.59064 229.4366 311.9344Q228.70222 311.27814 228.59285 310.2ZM235.59285 308.21564Q235.59285 306.6844 235.90535 305.7625Q236.21785 304.825 236.82722 304.325Q237.45222 303.825 238.38972 303.825Q239.07722 303.825 239.59285 304.10626Q240.1241 304.3875 240.46785 304.91876Q240.8116 305.4344 240.9991 306.1844Q241.1866 306.9344 241.1866 308.21564Q241.1866 309.73126 240.8741 310.65314Q240.57722 311.575 239.95222 312.09064Q239.34285 312.59064 238.38972 312.59064Q237.15535 312.59064 236.4366 311.7Q235.59285 310.6375 235.59285 308.21564ZM236.67097 308.21564Q236.67097 310.325 237.17097 311.02814Q237.67097 311.73126 238.38972 311.73126Q239.1241 311.73126 239.60847 311.02814Q240.10847 310.325 240.10847 308.21564Q240.10847 306.09064 239.60847 305.40314Q239.1241 304.7 238.3741 304.7Q237.65535 304.7 237.21785 305.3094Q236.67097 306.09064 236.67097 308.21564Z" fill-rule="nonzero"/><path fill="#000000" d="M315.24463 304.98126L315.24463 303.96564L320.80713 303.96564L320.80713 304.79376Q319.99463 305.66876 319.18213 307.1219Q318.38525 308.5594 317.94775 310.09064Q317.61963 311.16876 317.5415 312.45L316.44775 312.45Q316.46338 311.4344 316.83838 309.9969Q317.229 308.5594 317.93213 307.23126Q318.65088 305.90314 319.46338 304.98126L315.24463 304.98126ZM322.18213 310.2L323.2915 310.10626Q323.4165 310.91876 323.854 311.325Q324.30713 311.73126 324.94775 311.73126Q325.69775 311.73126 326.229 311.15314Q326.76025 310.575 326.76025 309.6375Q326.76025 308.73126 326.24463 308.21564Q325.74463 307.6844 324.9165 307.6844Q324.4165 307.6844 323.99463 307.91876Q323.58838 308.15314 323.354 308.5125L322.36963 308.3875L323.19775 303.98126L327.479 303.98126L327.479 304.98126L324.0415 304.98126L323.58838 307.29376Q324.354 306.7469 325.19775 306.7469Q326.32275 306.7469 327.08838 307.52814Q327.86963 308.3094 327.86963 309.54376Q327.86963 310.7 327.19775 311.5594Q326.36963 312.59064 324.94775 312.59064Q323.77588 312.59064 323.02588 311.9344Q322.2915 311.27814 322.18213 310.2Z" fill-rule="nonzero"/><path fill="#000000" d="M402.24017 312.45L401.1933 312.45L401.1933 305.73126Q400.80267 306.09064 400.17767 306.46564Q399.5683 306.825 399.08392 306.9969L399.08392 305.98126Q399.95892 305.5594 400.61517 304.98126Q401.28705 304.3875 401.5683 303.825L402.24017 303.825L402.24017 312.45ZM405.27142 308.21564Q405.27142 306.6844 405.58392 305.7625Q405.89642 304.825 406.5058 304.325Q407.1308 303.825 408.0683 303.825Q408.7558 303.825 409.27142 304.10626Q409.80267 304.3875 410.14642 304.91876Q410.49017 305.4344 410.67767 306.1844Q410.86517 306.9344 410.86517 308.21564Q410.86517 309.73126 410.55267 310.65314Q410.2558 311.575 409.6308 312.09064Q409.02142 312.59064 408.0683 312.59064Q406.83392 312.59064 406.11517 311.7Q405.27142 310.6375 405.27142 308.21564ZM406.34955 308.21564Q406.34955 310.325 406.84955 311.02814Q407.34955 311.73126 408.0683 311.73126Q408.80267 311.73126 409.28705 311.02814Q409.78705 310.325 409.78705 308.21564Q409.78705 306.09064 409.28705 305.40314Q408.80267 304.7 408.05267 304.7Q407.33392 304.7 406.89642 305.3094Q406.34955 306.09064 406.34955 308.21564ZM412.27142 308.21564Q412.27142 306.6844 412.58392 305.7625Q412.89642 304.825 413.5058 304.325Q414.1308 303.825 415.0683 303.825Q415.7558 303.825 416.27142 304.10626Q416.80267 304.3875 417.14642 304.91876Q417.49017 305.4344 417.67767 306.1844Q417.86517 306.9344 417.86517 308.21564Q417.86517 309.73126 417.55267 310.65314Q417.2558 311.575 416.6308 312.09064Q416.02142 312.59064 415.0683 312.59064Q413.83392 312.59064 413.11517 311.7Q412.27142 310.6375 412.27142 308.21564ZM413.34955 308.21564Q413.34955 310.325 413.84955 311.02814Q414.34955 311.73126 415.0683 311.73126Q415.80267 311.73126 416.28705 311.02814Q416.78705 310.325 416.78705 308.21564Q416.78705 306.09064 416.28705 305.40314Q415.80267 304.7 415.05267 304.7Q414.33392 304.7 413.89642 305.3094Q413.34955 306.09064 413.34955 308.21564Z" fill-rule="nonzero"/><path fill="#000000" d="M488.82947 312.45L487.7826 312.45L487.7826 305.73126Q487.39197 306.09064 486.76697 306.46564Q486.1576 306.825 485.67322 306.9969L485.67322 305.98126Q486.54822 305.5594 487.20447 304.98126Q487.87634 304.3875 488.1576 303.825L488.82947 303.825L488.82947 312.45ZM497.4076 311.4344L497.4076 312.45L491.7201 312.45Q491.7201 312.075 491.8451 311.71564Q492.06384 311.1375 492.5326 310.575Q493.01697 310.0125 493.92322 309.27814Q495.32947 308.1219 495.81384 307.45Q496.31384 306.77814 496.31384 306.1844Q496.31384 305.5594 495.86072 305.1375Q495.4076 304.7 494.68884 304.7Q493.92322 304.7 493.4701 305.15314Q493.01697 305.60626 493.00134 306.41876L491.92322 306.3094Q492.0326 305.09064 492.75134 304.46564Q493.48572 303.825 494.7201 303.825Q495.95447 303.825 496.67322 304.5125Q497.39197 305.2 497.39197 306.21564Q497.39197 306.73126 497.17322 307.23126Q496.9701 307.71564 496.4701 308.27814Q495.98572 308.825 494.86072 309.77814Q493.9076 310.575 493.62634 310.8719Q493.36072 311.15314 493.18884 311.4344L497.4076 311.4344ZM498.86072 310.2L499.9701 310.10626Q500.0951 310.91876 500.5326 311.325Q500.98572 311.73126 501.62634 311.73126Q502.37634 311.73126 502.9076 311.15314Q503.43884 310.575 503.43884 309.6375Q503.43884 308.73126 502.92322 308.21564Q502.42322 307.6844 501.5951 307.6844Q501.0951 307.6844 500.67322 307.91876Q500.26697 308.15314 500.0326 308.5125L499.04822 308.3875L499.87634 303.98126L504.1576 303.98126L504.1576 304.98126L500.7201 304.98126L500.26697 307.29376Q501.0326 306.7469 501.87634 306.7469Q503.00134 306.7469 503.76697 307.52814Q504.54822 308.3094 504.54822 309.54376Q504.54822 310.7 503.87634 311.5594Q503.04822 312.59064 501.62634 312.59064Q500.45447 312.59064 499.70447 311.9344Q498.9701 311.27814 498.86072 310.2Z" fill-rule="nonzero"/><path fill="#000000" d="M575.41876 312.45L574.3719 312.45L574.3719 305.73126Q573.98126 306.09064 573.35626 306.46564Q572.7469 306.825 572.2625 306.9969L572.2625 305.98126Q573.1375 305.5594 573.79376 304.98126Q574.46564 304.3875 574.7469 303.825L575.41876 303.825L575.41876 312.45ZM578.45 310.2L579.5594 310.10626Q579.6844 310.91876 580.1219 311.325Q580.575 311.73126 581.21564 311.73126Q581.96564 311.73126 582.4969 311.15314Q583.02814 310.575 583.02814 309.6375Q583.02814 308.73126 582.5125 308.21564Q582.0125 307.6844 581.1844 307.6844Q580.6844 307.6844 580.2625 307.91876Q579.85626 308.15314 579.6219 308.5125L578.6375 308.3875L579.46564 303.98126L583.7469 303.98126L583.7469 304.98126L580.3094 304.98126L579.85626 307.29376Q580.6219 306.7469 581.46564 306.7469Q582.59064 306.7469 583.35626 307.52814Q584.1375 308.3094 584.1375 309.54376Q584.1375 310.7 583.46564 311.5594Q582.6375 312.59064 581.21564 312.59064Q580.04376 312.59064 579.29376 311.9344Q578.5594 311.27814 578.45 310.2ZM585.45 308.21564Q585.45 306.6844 585.7625 305.7625Q586.075 304.825 586.6844 304.325Q587.3094 303.825 588.2469 303.825Q588.9344 303.825 589.45 304.10626Q589.98126 304.3875 590.325 304.91876Q590.66876 305.4344 590.85626 306.1844Q591.04376 306.9344 591.04376 308.21564Q591.04376 309.73126 590.73126 310.65314Q590.4344 311.575 589.8094 312.09064Q589.2 312.59064 588.2469 312.59064Q587.0125 312.59064 586.29376 311.7Q585.45 310.6375 585.45 308.21564ZM586.52814 308.21564Q586.52814 310.325 587.02814 311.02814Q587.52814 311.73126 588.2469 311.73126Q588.98126 311.73126 589.46564 311.02814Q589.96564 310.325 589.96564 308.21564Q589.96564 306.09064 589.46564 305.40314Q588.98126 304.7 588.23126 304.7Q587.5125 304.7 587.075 305.3094Q586.52814 306.09064 586.52814 308.21564Z" fill-rule="nonzero"/><path stroke="#4285f4" stroke-width="4.0" stroke-linecap="butt" d="M206.5 26.55L218.5 26.55" fill-rule="nonzero"/><path fill="#1a1a1a" d="M227.17188 26.675Q227.17188 24.175 228.51562 22.76875Q229.85938 21.346874 231.96875 21.346874Q233.35938 21.346874 234.46875 22.01875Q235.59375 22.675 236.17188 23.8625Q236.76562 25.05 236.76562 26.55Q236.76562 28.08125 236.14062 29.284374Q235.53125 30.4875 234.40625 31.1125Q233.28125 31.721874 231.96875 31.721874Q230.54688 31.721874 229.4375 31.034374Q228.32812 30.346874 227.75 29.175Q227.17188 27.9875 227.17188 26.675ZM228.54688 26.690624Q228.54688 28.503124 229.51562 29.55Q230.5 30.58125 231.96875 30.58125Q233.45312 30.58125 234.42188 29.534374Q235.39062 28.4875 235.39062 26.55Q235.39062 25.315624 234.96875 24.409374Q234.5625 23.503124 233.76562 23.003124Q232.96875 22.4875 231.98438 22.4875Q230.57812 22.4875 229.5625 23.45625Q228.54688 24.425 228.54688 26.690624ZM240.78125 34.503124Q239.75 33.20625 239.04688 31.4875Q238.34375 29.76875 238.34375 27.925Q238.34375 26.3 238.875 24.8Q239.48438 23.065624 240.78125 21.3625L241.65625 21.3625Q240.82812 22.784374 240.5625 23.39375Q240.14062 24.33125 239.90625 25.3625Q239.60938 26.628124 239.60938 27.925Q239.60938 31.221874 241.65625 34.503124L240.78125 34.503124ZM243.42188 31.55L243.42188 24.284374L244.53125 24.284374L244.53125 25.315624Q245.32812 24.128124 246.84375 24.128124Q247.5 24.128124 248.04688 24.3625Q248.59375 24.596874 248.85938 24.9875Q249.14062 25.3625 249.25 25.89375Q249.32812 26.2375 249.32812 27.08125L249.32812 31.55L248.09375 31.55L248.09375 27.128124Q248.09375 26.378124 247.95312 26.01875Q247.8125 25.64375 247.4375 25.425Q247.07812 25.190624 246.57812 25.190624Q245.79688 25.190624 245.21875 25.690624Q244.65625 26.190624 244.65625 27.58125L244.65625 31.55L243.42188 31.55ZM252.23438 34.503124L251.34375 34.503124Q253.39062 31.221874 253.39062 27.925Q253.39062 26.64375 253.09375 25.378124Q252.85938 24.346874 252.45312 23.409374Q252.1875 22.8 251.34375 21.3625L252.23438 21.3625Q253.51562 23.065624 254.125 24.8Q254.65625 26.3 254.65625 27.925Q254.65625 29.76875 253.9375 31.4875Q253.23438 33.20625 252.23438 34.503124Z" fill-rule="nonzero"/><path stroke="#ea4335" stroke-width="4.0" stroke-linecap="butt" d="M271.5 26.55L283.5 26.55" fill-rule="nonzero"/><path fill="#1a1a1a" d="M296.71875 31.55L295.48438 31.55L295.48438 23.70625Q295.04688 24.128124 294.3125 24.565624Q293.59375 24.9875 293.03125 25.190624L293.03125 24.003124Q294.0625 23.51875 294.82812 22.83125Q295.60938 22.14375 295.92188 21.4875L296.71875 21.4875L296.71875 31.55ZM300.07812 26.6125Q300.07812 24.83125 300.4375 23.753124Q300.8125 22.659374 301.53125 22.08125Q302.25 21.4875 303.34375 21.4875Q304.15625 21.4875 304.76562 21.815624Q305.375 22.14375 305.76562 22.753124Q306.17188 23.3625 306.39062 24.2375Q306.60938 25.1125 306.60938 26.6125Q306.60938 28.378124 306.25 29.45625Q305.89062 30.534374 305.17188 31.128124Q304.45312 31.721874 303.34375 31.721874Q301.90625 31.721874 301.07812 30.675Q300.07812 29.425 300.07812 26.6125ZM301.34375 26.6125Q301.34375 29.08125 301.92188 29.89375Q302.5 30.70625 303.34375 30.70625Q304.20312 30.70625 304.78125 29.89375Q305.35938 29.065624 305.35938 26.6125Q305.35938 24.128124 304.78125 23.315624Q304.20312 22.503124 303.32812 22.503124Q302.48438 22.503124 301.98438 23.221874Q301.34375 24.14375 301.34375 26.6125ZM308.07812 26.6125Q308.07812 24.83125 308.4375 23.753124Q308.8125 22.659374 309.53125 22.08125Q310.25 21.4875 311.34375 21.4875Q312.15625 21.4875 312.76562 21.815624Q313.375 22.14375 313.76562 22.753124Q314.17188 23.3625 314.39062 24.2375Q314.60938 25.1125 314.60938 26.6125Q314.60938 28.378124 314.25 29.45625Q313.89062 30.534374 313.17188 31.128124Q312.45312 31.721874 311.34375 31.721874Q309.90625 31.721874 309.07812 30.675Q308.07812 29.425 308.07812 26.6125ZM309.34375 26.6125Q309.34375 29.08125 309.92188 29.89375Q310.5 30.70625 311.34375 30.70625Q312.20312 30.70625 312.78125 29.89375Q313.35938 29.065624 313.35938 26.6125Q313.35938 24.128124 312.78125 23.315624Q312.20312 22.503124 311.32812 22.503124Q310.48438 22.503124 309.98438 23.221874Q309.34375 24.14375 309.34375 26.6125ZM316.42188 31.55L316.42188 24.284374L317.53125 24.284374L317.53125 25.315624Q318.32812 24.128124 319.84375 24.128124Q320.5 24.128124 321.04688 24.3625Q321.59375 24.596874 321.85938 24.9875Q322.14062 25.3625 322.25 25.89375Q322.32812 26.2375 322.32812 27.08125L322.32812 31.55L321.09375 31.55L321.09375 27.128124Q321.09375 26.378124 320.95312 26.01875Q320.8125 25.64375 320.4375 25.425Q320.07812 25.190624 319.57812 25.190624Q318.79688 25.190624 318.21875 25.690624Q317.65625 26.190624 317.65625 27.58125L317.65625 31.55L316.42188 31.55Z" fill-rule="nonzero"/><path stroke="#fbbc04" stroke-width="4.0" stroke-linecap="butt" d="M339.5 26.55L351.5 26.55" fill-rule="nonzero"/><path fill="#1a1a1a" d="M360.17188 26.675Q360.17188 24.175 361.51562 22.76875Q362.85938 21.346874 364.96875 21.346874Q366.35938 21.346874 367.46875 22.01875Q368.59375 22.675 369.17188 23.8625Q369.76562 25.05 369.76562 26.55Q369.76562 28.08125 369.14062 29.284374Q368.53125 30.4875 367.40625 31.1125Q366.28125 31.721874 364.96875 31.721874Q363.54688 31.721874 362.4375 31.034374Q361.32812 30.346874 360.75 29.175Q360.17188 27.9875 360.17188 26.675ZM361.54688 26.690624Q361.54688 28.503124 362.51562 29.55Q363.5 30.58125 364.96875 30.58125Q366.45312 30.58125 367.42188 29.534374Q368.39062 28.4875 368.39062 26.55Q368.39062 25.315624 367.96875 24.409374Q367.5625 23.503124 366.76562 23.003124Q365.96875 22.4875 364.98438 22.4875Q363.57812 22.4875 362.5625 23.45625Q361.54688 24.425 361.54688 26.690624ZM373.78125 34.503124Q372.75 33.20625 372.04688 31.4875Q371.34375 29.76875 371.34375 27.925Q371.34375 26.3 371.875 24.8Q372.48438 23.065624 373.78125 21.3625L374.65625 21.3625Q373.82812 22.784374 373.5625 23.39375Q373.14062 24.33125 372.90625 25.3625Q372.60938 26.628124 372.60938 27.925Q372.60938 31.221874 374.65625 34.503124L373.78125 34.503124ZM376.42188 31.55L376.42188 24.284374L377.53125 24.284374L377.53125 25.315624Q378.32812 24.128124 379.84375 24.128124Q380.5 24.128124 381.04688 24.3625Q381.59375 24.596874 381.85938 24.9875Q382.14062 25.3625 382.25 25.89375Q382.32812 26.2375 382.32812 27.08125L382.32812 31.55L381.09375 31.55L381.09375 27.128124Q381.09375 26.378124 380.95312 26.01875Q380.8125 25.64375 380.4375 25.425Q380.07812 25.190624 379.57812 25.190624Q378.79688 25.190624 378.21875 25.690624Q377.65625 26.190624 377.65625 27.58125L377.65625 31.55L376.42188 31.55ZM383.67188 26.534374Q383.71875 26.14375 384.0 25.753124Q384.42188 25.175 385.40625 24.45625Q386.39062 23.7375 386.57812 23.534374Q386.82812 23.253124 386.82812 22.95625Q386.82812 22.628124 386.57812 22.425Q386.34375 22.20625 385.89062 22.20625Q385.4375 22.20625 385.20312 22.378124Q384.98438 22.534374 384.84375 22.9875L383.8125 22.878124Q384.01562 22.128124 384.5 21.76875Q384.98438 21.409374 385.90625 21.409374Q386.9375 21.409374 387.42188 21.815624Q387.90625 22.20625 387.90625 22.8Q387.90625 23.3625 387.5 23.878124Q387.1875 24.26875 386.09375 25.05Q385.53125 25.471874 385.29688 25.70625L387.9375 25.70625L387.9375 26.534374L383.67188 26.534374ZM390.23438 34.503124L389.34375 34.503124Q391.39062 31.221874 391.39062 27.925Q391.39062 26.64375 391.09375 25.378124Q390.85938 24.346874 390.45312 23.409374Q390.1875 22.8 389.34375 21.3625L390.23438 21.3625Q391.51562 23.065624 392.125 24.8Q392.65625 26.3 392.65625 27.925Q392.65625 29.76875 391.9375 31.4875Q391.23438 33.20625 390.23438 34.503124Z" fill-rule="nonzero"/></svg>