<svg version="1.1" viewBox="0.0 0.0 600.0 371.0" fill="none" stroke="none" stroke-linecap="square" stroke-miterlimit="10" width="600" height="371" xmlns:xlink="http://www.w3.org/1999/xlink" xmlns="http://www.w3.org/2000/svg"><path fill="#ffffff" d="M0 0L600.0 0L600.0 371.0L0 371.0L0 0Z" fill-rule="nonzero"/><path stroke="#cccccc" stroke-width="1.0" stroke-linecap="butt" d="M89.5 53.5L89.5 295.5" fill-rule="nonzero"/><path stroke="#cccccc" stroke-width="1.0" stroke-linecap="butt" d="M253.5 53.5L253.5 295.5" fill-rule="nonzero"/><path stroke="#cccccc" stroke-width="1.0" stroke-linecap="butt" d="M417.5 53.5L417.5 295.5" fill-rule="nonzero"/><path stroke="#cccccc" stroke-width="1.0" stroke-linecap="butt" d="M581.5 53.5L581.5 295.5" fill-rule="nonzero"/><path stroke="#333333" stroke-width="1.0" stroke-linecap="butt" d="M89.5 295.5L581.5 295.5" fill-rule="nonzero"/><path stroke="#cccccc" stroke-width="1.0" stroke-linecap="butt" d="M89.5 235.5L581.5 235.5" fill-rule="nonzero"/><path stroke="#cccccc" stroke-width="1.0" stroke-linecap="butt" d="M89.5 174.5L581.5 174.5" fill-rule="nonzero"/><path stroke="#cccccc" stroke-width="1.0" stroke-linecap="butt" d="M89.5 114.5L581.5 114.5" fill-rule="nonzero"/><path stroke="#cccccc" stroke-width="1.0" stroke-linecap="butt" d="M89.5 53.5L581.5 53.5" fill-rule="nonzero"/><clipPath id="id_0"><path d="M89.55 53.916668L581.45 53.916668L581.45 295.45L89.55 295.45L89.55 53.916668Z" clip-rule="nonzero"/></clipPath><path stroke="#4285f4" stroke-width="2.0" stroke-linecap="butt" clip-path="url(#id_0)" d="M89.55 283.37332L253.51666 247.14333L417.48334 186.76L581.45 102.223335" fill-rule="nonzero"/><path stroke="#ea4335" stroke-width="2.0" stroke-linecap="butt" clip-path="url(#id_0)" d="M89.55 289.41165L253.51666 271.29666L417.48334 241.105L581.45 198.83667" fill-rule="nonzero"/><path fill="#000000" fill-opacity="0.0" clip-path="url(#id_0)" d="M92.55 283.37332C92.55 285.03018 91.206856 286.37332 89.55 286.37332C87.89314 286.37332 86.55 285.03018 86.55 283.37332C86.55 281.7165 87.89314 280.37332 89.55 280.37332C91.206856 280.37332 92.55 281.7165 92.55 283.37332Z" fill-rule="nonzero"/><path fill="#000000" fill-opacity="0.0" clip-path="url(#id_0)" d="M256.51666 247.14333C256.51666 248.80019 255.17352 250.14333 253.51666 250.14333C251.85982 250.14333 250.51666 248.80019 250.51666 247.14333C250.51666 245.48648 251.85982 244.14333 253.51666 244.14333C255.17352 244.14333 256.51666 245.48648 256.51666 247.14333Z" fill-rule="nonzero"/><path fill="#000000" fill-opacity="0.0" clip-path="url(#id_0)" d="M420.48334 186.76C420.48334 188.41685 419.1402 189.76 417.48334 189.76C415.82648 189.76 414.48334 188.41685 414.48334 186.76C414.48334 185.10315 415.82648 183.76 417.48334 183.76C419.1402 183.76 420.48334 185.10315 420.48334 186.76Z" fill-rule="nonzero"/><path fill="#000000" fill-opacity="0.0" clip-path="url(#id_0)" d="M584.45 102.223335C584.45 103.88019 583.1069 105.223335 581.45 105.223335C579.79315 105.223335 578.45 103.88019 578.45 102.223335C578.45 100.56648 579.79315 99.223335 581.45 99.223335C583.1069 99.223335 584.45 100.56648 584.45 102.223335Z" fill-rule="nonzero"/><path fill="#000000" fill-opacity="0.0" clip-path="url(#id_0)" d="M92.55 289.41165C92.55 291.0685 91.206856 292.41165 89.55 292.41165C87.89314 292.41165 86.55 291.0685 86.55 289.41165C86.55 287.75482 87.89314 286.41165 89.55 286.41165C91.206856 286.41165 92.55 287.75482 92.55 289.41165Z" fill-rule="nonzero"/><path fill="#000000" fill-opacity="0.0" clip-path="url(#id_0)" d="M256.51666 271.29666C256.51666 272.95352 255.17352 274.29666 253.51666 274.29666C251.85982 274.29666 250.51666 272.95352 250.51666 271.29666C250.51666 269.6398 251.85982 268.29666 253.51666 268.29666C255.17352 268.29666 256.51666 269.6398 256.51666 271.29666Z" fill-rule="nonzero"/><path fill="#000000" fill-opacity="0.0" clip-path="url(#id_0)" d="M420.48334 241.105C420.48334 242.76186 419.1402 244.105 417.48334 244.105C415.82648 244.105 414.48334 242.76186 414.48334 241.105C414.48334 239.44815 415.82648 238.105 417.48334 238.105C419.1402 238.105 420.48334 239.44815 420.48334 241.105Z" fill-rule="nonzero"/><path fill="#000000" fill-opacity="0.0" clip-path="url(#id_0)" d="M584.45 198.83667C584.45 200.49352 583.1069 201.83667 581.45 201.83667C579.79315 201.83667 578.45 200.49352 578.45 198.83667C578.45 197.17981 579.79315 195.83667 581.45 195.83667C583.1069 195.83667 584.45 197.17981 584.45 198.83667Z" fill-rule="nonzero"/><path fill="#000000" d="M273.5625 349.45L273.5625 339.4344L274.92188 339.4344L280.1875 347.29376L280.1875 339.4344L281.46875 339.4344L281.46875 349.45L280.10938 349.45L274.84375 341.575L274.84375 349.45L273.5625 349.45ZM287.1875 349.45L287.1875 348.3875Q286.32812 349.6219 284.875 349.6219Q284.23438 349.6219 283.67188 349.3719Q283.125 349.1219 282.84375 348.7469Q282.57812 348.3719 282.46875 347.84064Q282.39062 347.48126 282.39062 346.6844L282.39062 342.1844L283.625 342.1844L283.625 346.21564Q283.625 347.1844 283.70312 347.5125Q283.8125 347.9969 284.1875 348.27814Q284.5625 348.5594 285.125 348.5594Q285.67188 348.5594 286.15625 348.27814Q286.64062 347.98126 286.84375 347.4969Q287.04688 347.0125 287.04688 346.075L287.04688 342.1844L288.28125 342.1844L288.28125 349.45L287.1875 349.45ZM290.42188 349.45L290.42188 342.1844L291.53125 342.1844L291.53125 343.21564Q291.85938 342.66876 292.42188 342.35626Q293.0 342.02814 293.71875 342.02814Q294.53125 342.02814 295.04688 342.3719Q295.5625 342.7 295.78125 343.29376Q296.64062 342.02814 298.01562 342.02814Q299.09375 342.02814 299.67188 342.6219Q300.26562 343.21564 300.26562 344.46564L300.26562 349.45L299.03125 349.45L299.03125 344.8719Q299.03125 344.1375 298.90625 343.8094Q298.79688 343.48126 298.48438 343.29376Q298.17188 343.09064 297.75 343.09064Q296.98438 343.09064 296.46875 343.60626Q295.96875 344.10626 295.96875 345.23126L295.96875 349.45L294.73438 349.45L294.73438 344.73126Q294.73438 343.91876 294.4375 343.5125Q294.14062 343.09064 293.45312 343.09064Q292.9375 343.09064 292.48438 343.3719Q292.04688 343.6375 291.84375 344.16876Q291.65625 344.6844 291.65625 345.6844L291.65625 349.45L290.42188 349.45ZM302.5625 349.45L301.42188 349.45L301.42188 339.4344L302.64062 339.4344L302.64062 342.9969Q303.42188 342.02814 304.64062 342.02814Q305.3125 342.02814 305.90625 342.29376Q306.5 342.5594 306.89062 343.0594Q307.28125 343.54376 307.5 344.23126Q307.71875 344.91876 307.71875 345.71564Q307.71875 347.575 306.78125 348.60626Q305.85938 349.6219 304.57812 349.6219Q303.29688 349.6219 302.5625 348.54376L302.5625 349.45ZM302.54688 345.7625Q302.54688 347.075 302.90625 347.65314Q303.48438 348.60626 304.46875 348.60626Q305.28125 348.60626 305.85938 347.90314Q306.45312 347.2 306.45312 345.8094Q306.45312 344.3875 305.89062 343.71564Q305.32812 343.04376 304.53125 343.04376Q303.71875 343.04376 303.125 343.7469Q302.54688 344.4344 302.54688 345.7625ZM314.39062 347.10626L315.67188 347.2625Q315.35938 348.3875 314.54688 349.0125Q313.73438 349.6219 312.46875 349.6219Q310.875 349.6219 309.9375 348.6375Q309.01562 347.65314 309.01562 345.8875Q309.01562 344.04376 309.95312 343.04376Q310.90625 342.02814 312.40625 342.02814Q313.85938 342.02814 314.78125 343.02814Q315.70312 344.0125 315.70312 345.8094Q315.70312 345.91876 315.70312 346.1375L310.28125 346.1375Q310.35938 347.325 310.95312 347.96564Q311.5625 348.60626 312.48438 348.60626Q313.15625 348.60626 313.625 348.2469Q314.10938 347.8875 314.39062 347.10626ZM310.35938 345.1219L314.40625 345.1219Q314.32812 344.2 313.9375 343.7469Q313.35938 343.04376 312.42188 343.04376Q311.5625 343.04376 310.98438 343.60626Q310.42188 344.16876 310.35938 345.1219ZM317.40625 349.45L317.40625 342.1844L318.51562 342.1844L318.51562 343.29376Q318.9375 342.5125 319.29688 342.27814Q319.65625 342.02814 320.09375 342.02814Q320.71875 342.02814 321.35938 342.41876L320.9375 343.5594Q320.48438 343.29376 320.03125 343.29376Q319.625 343.29376 319.29688 343.54376Q318.98438 343.77814 318.84375 344.21564Q318.64062 344.8719 318.64062 345.65314L318.64062 349.45L317.40625 349.45ZM325.96875 345.825Q325.96875 343.8094 327.09375 342.825Q328.01562 342.02814 329.375 342.02814Q330.85938 342.02814 331.8125 343.0125Q332.76562 343.98126 332.76562 345.71564Q332.76562 347.1219 332.34375 347.9344Q331.92188 348.73126 331.10938 349.1844Q330.3125 349.6219 329.375 349.6219Q327.84375 349.6219 326.90625 348.6375Q325.96875 347.65314 325.96875 345.825ZM327.23438 345.825Q327.23438 347.21564 327.84375 347.91876Q328.45312 348.60626 329.375 348.60626Q330.28125 348.60626 330.89062 347.90314Q331.5 347.2 331.5 345.77814Q331.5 344.4344 330.89062 343.7469Q330.28125 343.04376 329.375 343.04376Q328.45312 343.04376 327.84375 343.73126Q327.23438 344.41876 327.23438 345.825ZM334.71875 349.45L334.71875 343.15314L333.625 343.15314L333.625 342.1844L334.71875 342.1844L334.71875 341.41876Q334.71875 340.6844 334.84375 340.325Q335.03125 339.85626 335.46875 339.5594Q335.92188 339.2625 336.73438 339.2625Q337.25 339.2625 337.875 339.3875L337.6875 340.45Q337.3125 340.3875 336.96875 340.3875Q336.40625 340.3875 336.17188 340.6219Q335.9375 340.85626 335.9375 341.5125L335.9375 342.1844L337.35938 342.1844L337.35938 343.15314L335.9375 343.15314L335.9375 349.45L334.71875 349.45ZM347.39062 347.10626L348.67188 347.2625Q348.35938 348.3875 347.54688 349.0125Q346.73438 349.6219 345.46875 349.6219Q343.875 349.6219 342.9375 348.6375Q342.01562 347.65314 342.01562 345.8875Q342.01562 344.04376 342.95312 343.04376Q343.90625 342.02814 345.40625 342.02814Q346.85938 342.02814 347.78125 343.02814Q348.70312 344.0125 348.70312 345.8094Q348.70312 345.91876 348.70312 346.1375L343.28125 346.1375Q343.35938 347.325 343.95312 347.96564Q344.5625 348.60626 345.48438 348.60626Q346.15625 348.60626 346.625 348.2469Q347.10938 347.8875 347.39062 347.10626ZM343.35938 345.1219L347.40625 345.1219Q347.32812 344.2 346.9375 343.7469Q346.35938 343.04376 345.42188 343.04376Q344.5625 343.04376 343.98438 343.60626Q343.42188 344.16876 343.35938 345.1219ZM350.39062 349.45L350.39062 339.4344L351.625 339.4344L351.625 349.45L350.39062 349.45ZM358.39062 347.10626L359.67188 347.2625Q359.35938 348.3875 358.54688 349.0125Q357.73438 349.6219 356.46875 349.6219Q354.875 349.6219 353.9375 348.6375Q353.01562 347.65314 353.01562 345.8875Q353.01562 344.04376 353.95312 343.04376Q354.90625 342.02814 356.40625 342.02814Q357.85938 342.02814 358.78125 343.02814Q359.70312 344.0125 359.70312 345.8094Q359.70312 345.91876 359.70312 346.1375L354.28125 346.1375Q354.35938 347.325 354.95312 347.96564Q355.5625 348.60626 356.48438 348.60626Q357.15625 348.60626 357.625 348.2469Q358.10938 347.8875 358.39062 347.10626ZM354.35938 345.1219L358.40625 345.1219Q358.32812 344.2 357.9375 343.7469Q357.35938 343.04376 356.42188 343.04376Q355.5625 343.04376 354.98438 343.60626Q354.42188 344.16876 354.35938 345.1219ZM361.42188 349.45L361.42188 342.1844L362.53125 342.1844L362.53125 343.21564Q362.85938 342.66876 363.42188 342.35626Q364.0 342.02814 364.71875 342.02814Q365.53125 342.02814 366.04688 342.3719Q366.5625 342.7 366.78125 343.29376Q367.64062 342.02814 369.01562 342.02814Q370.09375 342.02814 370.67188 342.6219Q371.26562 343.21564 371.26562 344.46564L371.26562 349.45L370.03125 349.45L370.03125 344.8719Q370.03125 344.1375 369.90625 343.8094Q369.79688 343.48126 369.48438 343.29376Q369.17188 343.09064 368.75 343.09064Q367.98438 343.09064 367.46875 343.60626Q366.96875 344.10626 366.96875 345.23126L366.96875 349.45L365.73438 349.45L365.73438 344.73126Q365.73438 343.91876 365.4375 343.5125Q365.14062 343.09064 364.45312 343.09064Q363.9375 343.09064 363.48438 343.3719Q363.04688 343.6375 362.84375 344.16876Q362.65625 344.6844 362.65625 345.6844L362.65625 349.45L361.42188 349.45ZM377.39062 347.10626L378.67188 347.2625Q378.35938 348.3875 377.54688 349.0125Q376.73438 349.6219 375.46875 349.6219Q373.875 349.6219 372.9375 348.6375Q372.01562 347.65314 372.01562 345.8875Q372.01562 344.04376 372.95312 343.04376Q373.90625 342.02814 375.40625 342.02814Q376.85938 342.02814 377.78125 343.02814Q378.70312 344.0125 378.70312 345.8094Q378.70312 345.91876 378.70312 346.1375L373.28125 346.1375Q373.35938 347.325 373.95312 347.96564Q374.5625 348.60626 375.48438 348.60626Q376.15625 348.60626 376.625 348.2469Q377.10938 347.8875 377.39062 347.10626ZM373.35938 345.1219L377.40625 345.1219Q377.32812 344.2 376.9375 343.7469Q376.35938 343.04376 375.42188 343.04376Q374.5625 343.04376 373.98438 343.60626Q373.42188 344.16876 373.35938 345.1219ZM380.42188 349.45L380.42188 342.1844L381.53125 342.1844L381.53125 343.21564Q382.32812 342.02814 383.84375 342.02814Q384.5 342.02814 385.04688 342.2625Q385.59375 342.4969 385.85938 342.8875Q386.14062 343.2625 386.25 343.79376Q386.32812 344.1375 386.32812 344.98126L386.32812 349.45L385.09375 349.45L385.09375 345.02814Q385.09375 344.27814 384.95312 343.91876Q384.8125 343.54376 384.4375 343.325Q384.07812 343.09064 383.57812 343.09064Q382.79688 343.09064 382.21875 343.59064Q381.65625 344.09064 381.65625 345.48126L381.65625 349.45L380.42188 349.45ZM391.10938 348.35626L391.28125 349.4344Q390.76562 349.54376 390.35938 349.54376Q389.6875 349.54376 389.3125 349.34064Q388.95312 349.1219 388.79688 348.77814Q388.65625 348.4344 388.65625 347.325L388.65625 343.15314L387.75 343.15314L387.75 342.1844L388.65625 342.1844L388.65625 340.3875L389.875 339.65314L389.875 342.1844L391.10938 342.1844L391.10938 343.15314L389.875 343.15314L389.875 347.3875Q389.875 347.91876 389.9375 348.075Q390.0 348.21564 390.14062 348.3094Q390.29688 348.40314 390.5625 348.40314Q390.78125 348.40314 391.10938 348.35626ZM391.9375 347.27814L393.14062 347.09064Q393.25 347.825 393.71875 348.21564Q394.1875 348.60626 395.03125 348.60626Q395.875 348.60626 396.28125 348.2625Q396.70312 347.91876 396.70312 347.45Q396.70312 347.02814 396.32812 346.79376Q396.07812 346.6219 395.07812 346.3719Q393.71875 346.02814 393.1875 345.77814Q392.67188 345.52814 392.40625 345.09064Q392.14062 344.65314 392.14062 344.1219Q392.14062 343.6375 392.35938 343.23126Q392.57812 342.8094 392.96875 342.52814Q393.25 342.325 393.73438 342.1844Q394.23438 342.02814 394.8125 342.02814Q395.65625 342.02814 396.29688 342.27814Q396.95312 342.5125 397.26562 342.9344Q397.57812 343.35626 397.6875 344.0594L396.48438 344.23126Q396.40625 343.66876 396.0 343.35626Q395.60938 343.04376 394.89062 343.04376Q394.04688 343.04376 393.6875 343.325Q393.32812 343.59064 393.32812 343.98126Q393.32812 344.21564 393.46875 344.40314Q393.625 344.60626 393.95312 344.73126Q394.125 344.79376 395.03125 345.04376Q396.34375 345.40314 396.85938 345.6219Q397.375 345.84064 397.65625 346.2625Q397.95312 346.6844 397.95312 347.3094Q397.95312 347.9344 397.59375 348.48126Q397.25 349.0125 396.5625 349.325Q395.89062 349.6219 395.03125 349.6219Q393.625 349.6219 392.875 349.02814Q392.14062 348.4344 391.9375 347.27814Z" fill-rule="nonzero"/><path fill="#000000" d="M31.550013 231.62083L21.534388 231.62083L21.534388 230.26146L29.393763 224.99583L21.534388 224.99583L21.534388 223.71458L31.550013 223.71458L31.550013 225.07396L23.675013 230.33958L31.550013 230.33958L31.550013 231.62083ZM31.550013 217.99583L30.487513 217.99583Q31.721888 218.85521 31.721888 220.30833Q31.721888 220.94896 31.471888 221.51146Q31.221888 222.05833 30.846888 222.33958Q30.471888 222.60521 29.940638 222.71458Q29.581263 222.79271 28.784388 222.79271L24.284388 222.79271L24.284388 221.55833L28.315638 221.55833Q29.284388 221.55833 29.612513 221.48021Q30.096888 221.37083 30.378138 220.99583Q30.659388 220.62083 30.659388 220.05833Q30.659388 219.51146 30.378138 219.02708Q30.081263 218.54271 29.596888 218.33958Q29.112513 218.13646 28.175013 218.13646L24.284388 218.13646L24.284388 216.90208L31.550013 216.90208L31.550013 217.99583ZM31.550013 214.76146L24.284388 214.76146L24.284388 213.65208L25.315638 213.65208Q24.768763 213.32396 24.456263 212.76146Q24.128138 212.18333 24.128138 211.46458Q24.128138 210.65208 24.471888 210.13646Q24.800013 209.62083 25.393763 209.40208Q24.128138 208.54271 24.128138 207.16771Q24.128138 206.08958 24.721888 205.51146Q25.315638 204.91771 26.565638 204.91771L31.550013 204.91771L31.550013 206.15208L26.971888 206.15208Q26.237513 206.15208 25.909388 206.27708Q25.581263 206.38646 25.393763 206.69896Q25.190638 207.01146 25.190638 207.43333Q25.190638 208.19896 25.706263 208.71458Q26.206263 209.21458 27.331263 209.21458L31.550013 209.21458L31.550013 210.44896L26.831263 210.44896Q26.018763 210.44896 25.612513 210.74583Q25.190638 211.04271 25.190638 211.73021Q25.190638 212.24583 25.471888 212.69896Q25.737513 213.13646 26.268763 213.33958Q26.784388 213.52708 27.784388 213.52708L31.550013 213.52708L31.550013 214.76146ZM31.550013 202.62083L31.550013 203.76146L21.534388 203.76146L21.534388 202.54271L25.096888 202.54271Q24.128138 201.76146 24.128138 200.54271Q24.128138 199.87083 24.393763 199.27708Q24.659388 198.68333 25.159388 198.29271Q25.643763 197.90208 26.331263 197.68333Q27.018763 197.46458 27.815638 197.46458Q29.675013 197.46458 30.706263 198.40208Q31.721888 199.32396 31.721888 200.60521Q31.721888 201.88646 30.643763 202.62083L31.550013 202.62083ZM27.862513 202.63646Q29.175013 202.63646 29.753138 202.27708Q30.706263 201.69896 30.706263 200.71458Q30.706263 199.90208 30.003138 199.32396Q29.300013 198.73021 27.909388 198.73021Q26.487513 198.73021 25.815638 199.29271Q25.143763 199.85521 25.143763 200.65208Q25.143763 201.46458 25.846888 202.05833Q26.534388 202.63646 27.862513 202.63646ZM29.206263 190.79271L29.362513 189.51146Q30.487513 189.82396 31.112513 190.63646Q31.721888 191.44896 31.721888 192.71458Q31.721888 194.30833 30.737513 195.24583Q29.753138 196.16771 27.987513 196.16771Q26.143763 196.16771 25.143763 195.23021Q24.128138 194.27708 24.128138 192.77708Q24.128138 191.32396 25.128138 190.40208Q26.112513 189.48021 27.909388 189.48021Q28.018763 189.48021 28.237513 189.48021L28.237513 194.90208Q29.425013 194.82396 30.065638 194.23021Q30.706263 193.62083 30.706263 192.69896Q30.706263 192.02708 30.346888 191.55833Q29.987513 191.07396 29.206263 190.79271ZM27.221888 194.82396L27.221888 190.77708Q26.300013 190.85521 25.846888 191.24583Q25.143763 191.82396 25.143763 192.76146Q25.143763 193.62083 25.706263 194.19896Q26.268763 194.76146 27.221888 194.82396ZM31.550013 187.77708L24.284388 187.77708L24.284388 186.66771L25.393763 186.66771Q24.612513 186.24583 24.378138 185.88646Q24.128138 185.52708 24.128138 185.08958Q24.128138 184.46458 24.518763 183.82396L25.659388 184.24583Q25.393763 184.69896 25.393763 185.15208Q25.393763 185.55833 25.643763 185.88646Q25.878138 186.19896 26.315638 186.33958Q26.971888 186.54271 27.753138 186.54271L31.550013 186.54271L31.550013 187.77708ZM27.925013 179.21458Q25.909388 179.21458 24.925013 178.08958Q24.128138 177.16771 24.128138 175.80833Q24.128138 174.32396 25.112513 173.37083Q26.081263 172.41771 27.815638 172.41771Q29.221888 172.41771 30.034388 172.83958Q30.831263 173.26146 31.284388 174.07396Q31.721888 174.87083 31.721888 175.80833Q31.721888 177.33958 30.737513 178.27708Q29.753138 179.21458 27.925013 179.21458ZM27.925013 177.94896Q29.315638 177.94896 30.018763 177.33958Q30.706263 176.73021 30.706263 175.80833Q30.706263 174.90208 30.003138 174.29271Q29.300013 173.68333 27.878138 173.68333Q26.534388 173.68333 25.846888 174.29271Q25.143763 174.90208 25.143763 175.80833Q25.143763 176.73021 25.831263 177.33958Q26.518763 177.94896 27.925013 177.94896ZM31.550013 170.46458L25.253138 170.46458L25.253138 171.55833L24.284388 171.55833L24.284388 170.46458L23.518763 170.46458Q22.784388 170.46458 22.425013 170.33958Q21.956263 170.15208 21.659388 169.71458Q21.362513 169.26146 21.362513 168.44896Q21.362513 167.93333 21.487513 167.30833L22.550013 167.49583Q22.487513 167.87083 22.487513 168.21458Q22.487513 168.77708 22.721888 169.01146Q22.956263 169.24583 23.612513 169.24583L24.284388 169.24583L24.284388 167.82396L25.253138 167.82396L25.253138 169.24583L31.550013 169.24583L31.550013 170.46458ZM29.378138 163.24583L29.190638 162.04271Q29.925013 161.93333 30.315638 161.46458Q30.706263 160.99583 30.706263 160.15208Q30.706263 159.30833 30.362513 158.90208Q30.018763 158.48021 29.550013 158.48021Q29.128138 158.48021 28.893763 158.85521Q28.721888 159.10521 28.471888 160.10521Q28.128138 161.46458 27.878138 161.99583Q27.628138 162.51146 27.190638 162.77708Q26.753138 163.04271 26.221888 163.04271Q25.737513 163.04271 25.331263 162.82396Q24.909388 162.60521 24.628138 162.21458Q24.425013 161.93333 24.284388 161.44896Q24.128138 160.94896 24.128138 160.37083Q24.128138 159.52708 24.378138 158.88646Q24.612513 158.23021 25.034388 157.91771Q25.456263 157.60521 26.159388 157.49583L26.331263 158.69896Q25.768763 158.77708 25.456263 159.18333Q25.143763 159.57396 25.143763 160.29271Q25.143763 161.13646 25.425013 161.49583Q25.690638 161.85521 26.081263 161.85521Q26.315638 161.85521 26.503138 161.71458Q26.706263 161.55833 26.831263 161.23021Q26.893763 161.05833 27.143763 160.15208Q27.503138 158.83958 27.721888 158.32396Q27.940638 157.80833 28.362513 157.52708Q28.784388 157.23021 29.409388 157.23021Q30.034388 157.23021 30.581263 157.58958Q31.112513 157.93333 31.425013 158.62083Q31.721888 159.29271 31.721888 160.15208Q31.721888 161.55833 31.128138 162.30833Q30.534388 163.04271 29.378138 163.24583ZM30.456263 153.07396L31.534388 152.90208Q31.643763 153.41771 31.643763 153.82396Q31.643763 154.49583 31.440638 154.87083Q31.221888 155.23021 30.878138 155.38646Q30.534388 155.52708 29.425013 155.52708L25.253138 155.52708L25.253138 156.43333L24.284388 156.43333L24.284388 155.52708L22.487513 155.52708L21.753138 154.30833L24.284388 154.30833L24.284388 153.07396L25.253138 153.07396L25.253138 154.30833L29.487513 154.30833Q30.018763 154.30833 30.175013 154.24583Q30.315638 154.18333 30.409388 154.04271Q30.503138 153.88646 30.503138 153.62083Q30.503138 153.40208 30.456263 153.07396ZM29.206263 146.79271L29.362513 145.51146Q30.487513 145.82396 31.112513 146.63646Q31.721888 147.44896 31.721888 148.71458Q31.721888 150.30833 30.737513 151.24583Q29.753138 152.16771 27.987513 152.16771Q26.143763 152.16771 25.143763 151.23021Q24.128138 150.27708 24.128138 148.77708Q24.128138 147.32396 25.128138 146.40208Q26.112513 145.48021 27.909388 145.48021Q28.018763 145.48021 28.237513 145.48021L28.237513 150.90208Q29.425013 150.82396 30.065638 150.23021Q30.706263 149.62083 30.706263 148.69896Q30.706263 148.02708 30.346888 147.55833Q29.987513 147.07396 29.206263 146.79271ZM27.221888 150.82396L27.221888 146.77708Q26.300013 146.85521 25.846888 147.24583Q25.143763 147.82396 25.143763 148.76146Q25.143763 149.62083 25.706263 150.19896Q26.268763 150.76146 27.221888 150.82396ZM34.33126 143.76146L24.284388 143.76146L24.284388 142.63646L25.237513 142.63646Q24.675013 142.24583 24.409388 141.74583Q24.128138 141.24583 24.128138 140.52708Q24.128138 139.60521 24.612513 138.90208Q25.081263 138.18333 25.956263 137.82396Q26.831263 137.46458 27.862513 137.46458Q28.971888 137.46458 29.878138 137.87083Q30.768763 138.26146 31.253138 139.02708Q31.721888 139.77708 31.721888 140.62083Q31.721888 141.23021 31.456263 141.73021Q31.190638 142.21458 30.800013 142.52708L34.33126 142.52708L34.33126 143.76146ZM27.956263 142.65208Q29.362513 142.65208 30.034388 142.08958Q30.706263 141.51146 30.706263 140.69896Q30.706263 139.88646 30.018763 139.30833Q29.315638 138.71458 27.862513 138.71458Q26.471888 138.71458 25.784388 139.29271Q25.096888 139.85521 25.096888 140.65208Q25.096888 141.43333 25.831263 142.04271Q26.565638 142.65208 27.956263 142.65208ZM29.378138 136.24583L29.190638 135.04271Q29.925013 134.93333 30.315638 134.46458Q30.706263 133.99583 30.706263 133.15208Q30.706263 132.30833 30.362513 131.90208Q30.018763 131.48021 29.550013 131.48021Q29.128138 131.48021 28.893763 131.85521Q28.721888 132.10521 28.471888 133.10521Q28.128138 134.46458 27.878138 134.99583Q27.628138 135.51146 27.190638 135.77708Q26.753138 136.04271 26.221888 136.04271Q25.737513 136.04271 25.331263 135.82396Q24.909388 135.60521 24.628138 135.21458Q24.425013 134.93333 24.284388 134.44896Q24.128138 133.94896 24.128138 133.37083Q24.128138 132.52708 24.378138 131.88646Q24.612513 131.23021 25.034388 130.91771Q25.456263 130.60521 26.159388 130.49583L26.331263 131.69896Q25.768763 131.77708 25.456263 132.18333Q25.143763 132.57396 25.143763 133.29271Q25.143763 134.13646 25.425013 134.49583Q25.690638 134.85521 26.081263 134.85521Q26.315638 134.85521 26.503138 134.71458Q26.706263 134.55833 26.831263 134.23021Q26.893763 134.05833 27.143763 133.15208Q27.503138 131.83958 27.721888 131.32396Q27.940638 130.80833 28.362513 130.52708Q28.784388 130.23021 29.409388 130.23021Q30.034388 130.23021 30.581263 130.58958Q31.112513 130.93333 31.425013 131.62083Q31.721888 132.29271 31.721888 133.15208Q31.721888 134.55833 31.128138 135.30833Q30.534388 136.04271 29.378138 136.24583Z" fill-rule="nonzero"/><path fill="#000000" d="M77.05 295.21564Q77.05 293.6844 77.3625 292.7625Q77.675 291.825 78.28438 291.325Q78.90938 290.825 79.84688 290.825Q80.53438 290.825 81.05 291.10626Q81.58125 291.3875 81.925 291.91876Q82.26875 292.4344 82.45625 293.1844Q82.64375 293.9344 82.64375 295.21564Q82.64375 296.73126 82.33125 297.65314Q82.03438 298.575 81.40938 299.09064Q80.8 299.59064 79.84688 299.59064Q78.6125 299.59064 77.89375 298.7Q77.05 297.6375 77.05 295.21564ZM78.12813 295.21564Q78.12813 297.325 78.62813 298.02814Q79.12813 298.73126 79.84688 298.73126Q80.58125 298.73126 81.06563 298.02814Q81.56563 297.325 81.56563 295.21564Q81.56563 293.09064 81.06563 292.40314Q80.58125 291.7 79.83125 291.7Q79.1125 291.7 78.675 292.3094Q78.12813 293.09064 78.12813 295.21564Z" fill-rule="nonzero"/><path fill="#000000" d="M63.05 236.81667L64.15938 236.72292Q64.28438 237.53542 64.72188 237.94167Q65.175 238.34792 65.81563 238.34792Q66.56563 238.34792 67.09688 237.76979Q67.62813 237.19167 67.62813 236.25417Q67.62813 235.34792 67.1125 234.83229Q66.6125 234.30104 65.78438 234.30104Q65.28438 234.30104 64.8625 234.53542Q64.45625 234.76979 64.22188 235.12917L63.2375 235.00417L64.06563 230.59792L68.34688 230.59792L68.34688 231.59792L64.90938 231.59792L64.45625 233.91042Q65.22188 233.36354 66.06563 233.36354Q67.19063 233.36354 67.95625 234.14479Q68.7375 234.92604 68.7375 236.16042Q68.7375 237.31667 68.06563 238.17604Q67.2375 239.20729 65.81563 239.20729Q64.64375 239.20729 63.89375 238.55104Q63.159374 237.89479 63.05 236.81667ZM70.05 234.83229Q70.05 233.30104 70.3625 232.37917Q70.675 231.44167 71.28438 230.94167Q71.90938 230.44167 72.84688 230.44167Q73.53438 230.44167 74.05 230.72292Q74.58125 231.00417 74.925 231.53542Q75.26875 232.05104 75.45625 232.80104Q75.64375 233.55104 75.64375 234.83229Q75.64375 236.34792 75.33125 237.26979Q75.03438 238.19167 74.40938 238.70729Q73.8 239.20729 72.84688 239.20729Q71.6125 239.20729 70.89375 238.31667Q70.05 237.25417 70.05 234.83229ZM71.12813 234.83229Q71.12813 236.94167 71.62813 237.64479Q72.12813 238.34792 72.84688 238.34792Q73.58125 238.34792 74.06563 237.64479Q74.56563 236.94167 74.56563 234.83229Q74.56563 232.70729 74.06563 232.01979Q73.58125 231.31667 72.83125 231.31667Q72.1125 231.31667 71.675 231.92604Q71.12813 232.70729 71.12813 234.83229ZM77.05 234.83229Q77.05 233.30104 77.3625 232.37917Q77.675 231.44167 78.28438 230.94167Q78.90938 230.44167 79.84688 230.44167Q80.53438 230.44167 81.05 230.72292Q81.58125 231.00417 81.925 231.53542Q82.26875 232.05104 82.45625 232.80104Q82.64375 233.55104 82.64375 234.83229Q82.64375 236.34792 82.33125 237.26979Q82.03438 238.19167 81.40938 238.70729Q80.8 239.20729 79.84688 239.20729Q78.6125 239.20729 77.89375 238.31667Q77.05 237.25417 77.05 234.83229ZM78.12813 234.83229Q78.12813 236.94167 78.62813 237.64479Q79.12813 238.34792 79.84688 238.34792Q80.58125 238.34792 81.06563 237.64479Q81.56563 236.94167 81.56563 234.83229Q81.56563 232.70729 81.06563 232.01979Q80.58125 231.31667 79.83125 231.31667Q79.1125 231.31667 78.675 231.92604Q78.12813 232.70729 78.12813 234.83229Z" fill-rule="nonzero"/><path fill="#000000" d="M60.01875 178.68333L58.971874 178.68333L58.971874 171.96458Q58.58125 172.32396 57.95625 172.69896Q57.346874 173.05833 56.8625 173.23021L56.8625 172.21458Q57.7375 171.79271 58.39375 171.21458Q59.065624 170.62083 59.346874 170.05833L60.01875 170.05833L60.01875 178.68333ZM63.05 174.44896Q63.05 172.91771 63.3625 171.99583Q63.675 171.05833 64.28438 170.55833Q64.90938 170.05833 65.84688 170.05833Q66.53438 170.05833 67.05 170.33958Q67.58125 170.62083 67.925 171.15208Q68.26875 171.66771 68.45625 172.41771Q68.64375 173.16771 68.64375 174.44896Q68.64375 175.96458 68.33125 176.88646Q68.03438 177.80833 67.40938 178.32396Q66.8 178.82396 65.84688 178.82396Q64.6125 178.82396 63.89375 177.93333Q63.05 176.87083 63.05 174.44896ZM64.12813 174.44896Q64.12813 176.55833 64.62813 177.26146Q65.12813 177.96458 65.84688 177.96458Q66.58125 177.96458 67.06563 177.26146Q67.56563 176.55833 67.56563 174.44896Q67.56563 172.32396 67.06563 171.63646Q66.58125 170.93333 65.83125 170.93333Q65.1125 170.93333 64.675 171.54271Q64.12813 172.32396 64.12813 174.44896ZM70.05 174.44896Q70.05 172.91771 70.3625 171.99583Q70.675 171.05833 71.28438 170.55833Q71.90938 170.05833 72.84688 170.05833Q73.53438 170.05833 74.05 170.33958Q74.58125 170.62083 74.925 171.15208Q75.26875 171.66771 75.45625 172.41771Q75.64375 173.16771 75.64375 174.44896Q75.64375 175.96458 75.33125 176.88646Q75.03438 177.80833 74.40938 178.32396Q73.8 178.82396 72.84688 178.82396Q71.6125 178.82396 70.89375 177.93333Q70.05 176.87083 70.05 174.44896ZM71.12813 174.44896Q71.12813 176.55833 71.62813 177.26146Q72.12813 177.96458 72.84688 177.96458Q73.58125 177.96458 74.06563 177.26146Q74.56563 176.55833 74.56563 174.44896Q74.56563 172.32396 74.06563 171.63646Q73.58125 170.93333 72.83125 170.93333Q72.1125 170.93333 71.675 171.54271Q71.12813 172.32396 71.12813 174.44896ZM77.05 174.44896Q77.05 172.91771 77.3625 171.99583Q77.675 171.05833 78.28438 170.55833Q78.90938 170.05833 79.84688 170.05833Q80.53438 170.05833 81.05 170.33958Q81.58125 170.62083 81.925 171.15208Q82.26875 171.66771 82.45625 172.41771Q82.64375 173.16771 82.64375 174.44896Q82.64375 175.96458 82.33125 176.88646Q82.03438 177.80833 81.40938 178.32396Q80.8 178.82396 79.84688 178.82396Q78.6125 178.82396 77.89375 177.93333Q77.05 176.87083 77.05 174.44896ZM78.12813 174.44896Q78.12813 176.55833 78.62813 177.26146Q79.12813 177.96458 79.84688 177.96458Q80.58125 177.96458 81.06563 177.26146Q81.56563 176.55833 81.56563 174.44896Q81.56563 172.32396 81.06563 171.63646Q80.58125 170.93333 79.83125 170.93333Q79.1125 170.93333 78.675 171.54271Q78.12813 172.32396 78.12813 174.44896Z" fill-rule="nonzero"/><path fill="#000000" d="M60.01875 118.3L58.971874 118.3L58.971874 111.58125Q58.58125 111.94063 57.95625 112.31563Q57.346874 112.675 56.8625 112.84688L56.8625 111.83125Q57.7375 111.40938 58.39375 110.83125Q59.065624 110.2375 59.346874 109.675L60.01875 109.675L60.01875 118.3ZM63.05 116.05L64.15938 115.95625Q64.28438 116.76875 64.72188 117.175Q65.175 117.58125 65.81563 117.58125Q66.56563 117.58125 67.09688 117.00313Q67.62813 116.425 67.62813 115.4875Q67.62813 114.58125 67.1125 114.06563Q66.6125 113.53438 65.78438 113.53438Q65.28438 113.53438 64.8625 113.76875Q64.45625 114.00313 64.22188 114.3625L63.2375 114.2375L64.06563 109.83125L68.34688 109.83125L68.34688 110.83125L64.90938 110.83125L64.45625 113.14375Q65.22188 112.59688 66.06563 112.59688Q67.19063 112.59688 67.95625 113.37813Q68.7375 114.15938 68.7375 115.39375Q68.7375 116.55 68.06563 117.40938Q67.2375 118.44063 65.81563 118.44063Q64.64375 118.44063 63.89375 117.78438Q63.159374 117.12813 63.05 116.05ZM70.05 114.06563Q70.05 112.53438 70.3625 111.6125Q70.675 110.675 71.28438 110.175Q71.90938 109.675 72.84688 109.675Q73.53438 109.675 74.05 109.95625Q74.58125 110.2375 74.925 110.76875Q75.26875 111.28438 75.45625 112.03438Q75.64375 112.78438 75.64375 114.06563Q75.64375 115.58125 75.33125 116.50313Q75.03438 117.425 74.40938 117.94063Q73.8 118.44063 72.84688 118.44063Q71.6125 118.44063 70.89375 117.55Q70.05 116.4875 70.05 114.06563ZM71.12813 114.06563Q71.12813 116.175 71.62813 116.87813Q72.12813 117.58125 72.84688 117.58125Q73.58125 117.58125 74.06563 116.87813Q74.56563 116.175 74.56563 114.06563Q74.56563 111.94063 74.06563 111.25313Q73.58125 110.55 72.83125 110.55Q72.1125 110.55 71.675 111.15938Q71.12813 111.94063 71.12813 114.06563ZM77.05 114.06563Q77.05 112.53438 77.3625 111.6125Q77.675 110.675 78.28438 110.175Q78.90938 109.675 79.84688 109.675Q80.53438 109.675 81.05 109.95625Q81.58125 110.2375 81.925 110.76875Q82.26875 111.28438 82.45625 112.03438Q82.64375 112.78438 82.64375 114.06563Q82.64375 115.58125 82.33125 116.50313Q82.03438 117.425 81.40938 117.94063Q80.8 118.44063 79.84688 118.44063Q78.6125 118.44063 77.89375 117.55Q77.05 116.4875 77.05 114.06563ZM78.12813 114.06563Q78.12813 116.175 78.62813 116.87813Q79.12813 117.58125 79.84688 117.58125Q80.58125 117.58125 81.06563 116.87813Q81.56563 116.175 81.56563 114.06563Q81.56563 111.94063 81.06563 111.25313Q80.58125 110.55 79.83125 110.55Q79.1125 110.55 78.675 111.15938Q78.12813 111.94063 78.12813 114.06563Z" fill-rule="nonzero"/><path fill="#000000" d="M61.596874 56.901043L61.596874 57.916668L55.909374 57.916668Q55.909374 57.541668 56.034374 57.182293Q56.253124 56.604168 56.721874 56.041668Q57.20625 55.479168 58.1125 54.744793Q59.51875 53.588543 60.003124 52.916668Q60.503124 52.244793 60.503124 51.651043Q60.503124 51.026043 60.05 50.604168Q59.596874 50.166668 58.878124 50.166668Q58.1125 50.166668 57.659374 50.619793Q57.20625 51.072918 57.190624 51.885418L56.1125 51.776043Q56.221874 50.557293 56.940624 49.932293Q57.675 49.291668 58.909374 49.291668Q60.14375 49.291668 60.8625 49.979168Q61.58125 50.666668 61.58125 51.682293Q61.58125 52.197918 61.3625 52.697918Q61.159374 53.182293 60.659374 53.744793Q60.175 54.291668 59.05 55.244793Q58.096874 56.041668 57.815624 56.338543Q57.55 56.619793 57.378124 56.901043L61.596874 56.901043ZM63.05 53.682293Q63.05 52.151043 63.3625 51.229168Q63.675 50.291668 64.28438 49.791668Q64.90938 49.291668 65.84688 49.291668Q66.53438 49.291668 67.05 49.572918Q67.58125 49.854168 67.925 50.385418Q68.26875 50.901043 68.45625 51.651043Q68.64375 52.401043 68.64375 53.682293Q68.64375 55.197918 68.33125 56.119793Q68.03438 57.041668 67.40938 57.557293Q66.8 58.057293 65.84688 58.057293Q64.6125 58.057293 63.89375 57.166668Q63.05 56.104168 63.05 53.682293ZM64.12813 53.682293Q64.12813 55.791668 64.62813 56.494793Q65.12813 57.197918 65.84688 57.197918Q66.58125 57.197918 67.06563 56.494793Q67.56563 55.791668 67.56563 53.682293Q67.56563 51.557293 67.06563 50.869793Q66.58125 50.166668 65.83125 50.166668Q65.1125 50.166668 64.675 50.776043Q64.12813 51.557293 64.12813 53.682293ZM70.05 53.682293Q70.05 52.151043 70.3625 51.229168Q70.675 50.291668 71.28438 49.791668Q71.90938 49.291668 72.84688 49.291668Q73.53438 49.291668 74.05 49.572918Q74.58125 49.854168 74.925 50.385418Q75.26875 50.901043 75.45625 51.651043Q75.64375 52.401043 75.64375 53.682293Q75.64375 55.197918 75.33125 56.119793Q75.03438 57.041668 74.40938 57.557293Q73.8 58.057293 72.84688 58.057293Q71.6125 58.057293 70.89375 57.166668Q70.05 56.104168 70.05 53.682293ZM71.12813 53.682293Q71.12813 55.791668 71.62813 56.494793Q72.12813 57.197918 72.84688 57.197918Q73.58125 57.197918 74.06563 56.494793Q74.56563 55.791668 74.56563 53.682293Q74.56563 51.557293 74.06563 50.869793Q73.58125 50.166668 72.83125 50.166668Q72.1125 50.166668 71.675 50.776043Q71.12813 51.557293 71.12813 53.682293ZM77.05 53.682293Q77.05 52.151043 77.3625 51.229168Q77.675 50.291668 78.28438 49.791668Q78.90938 49.291668 79.84688 49.291668Q80.53438 49.291668 81.05 49.572918Q81.58125 49.854168 81.925 50.385418Q82.26875 50.901043 82.45625 51.651043Q82.64375 52.401043 82.64375 53.682293Q82.64375 55.197918 82.33125 56.119793Q82.03438 57.041668 81.40938 57.557293Q80.8 58.057293 79.84688 58.057293Q78.6125 58.057293 77.89375 57.166668Q77.05 56.104168 77.05 53.682293ZM78.12813 53.682293Q78.12813 55.791668 78.62813 56.494793Q79.12813 57.197918 79.84688 57.197918Q80.58125 57.197918 81.06563 56.494793Q81.56563 55.791668 81.56563 53.682293Q81.56563 51.557293 81.06563 50.869793Q80.58125 50.166668 79.83125 50.166668Q79.1125 50.166668 78.675 50.776043Q78.12813 51.557293 78.12813 53.682293Z" fill-rule="nonzero"/><path fill="#000000" d="M87.01875 312.45L85.97188 312.45L85.97188 305.73126Q85.58125 306.09064 84.95625 306.46564Q84.34688 306.825 83.8625 306.9969L83.8625 305.98126Q84.7375 305.5594 85.39375 304.98126Q86.06563 304.3875 86.34688 303.825L87.01875 303.825L87.01875 312.45ZM90.05 308.21564Q90.05 306.6844 90.3625 305.7625Q90.675 304.825 91.28438 304.325Q91.90938 303.825 92.84688 303.825Q93.53438 303.825 94.05 304.10626Q94.58125 304.3875 94.925 304.91876Q95.26875 305.4344 95.45625 306.1844Q95.64375 306.9344 95.64375 308.21564Q95.64375 309.73126 95.33125 310.65314Q95.03438 311.575 94.40938 312.09064Q93.8 312.59064 92.84688 312.59064Q91.6125 312.59064 90.89375 311.7Q90.05 310.6375 90.05 308.21564ZM91.12813 308.21564Q91.12813 310.325 91.62813 311.02814Q92.12813 311.73126 92.84688 311.73126Q93.58125 311.73126 94.06563 311.02814Q94.56563 310.325 94.56563 308.21564Q94.56563 306.09064 94.06563 305.40314Q93.58125 304.7 92.83125 304.7Q92.1125 304.7 91.675 305.3094Q91.12813 306.09064 91.12813 308.21564Z" fill-rule="nonzero"/><path fill="#000000" d="M252.56354 311.4344L252.56354 312.45L246.87604 312.45Q246.87604 312.075 247.00104 311.71564Q247.21979 311.1375 247.68854 310.575Q248.17291 310.0125 249.07916 309.27814Q250.48541 308.1219 250.96979 307.45Q251.46979 306.77814 251.46979 306.1844Q251.46979 305.5594 251.01666 305.1375Q250.56354 304.7 249.84479 304.7Q249.07916 304.7 248.62604 305.15314Q248.17291 305.60626 248.15729 306.41876L247.07916 306.3094Q247.18854 305.09064 247.90729 304.46564Q248.64166 303.825 249.87604 303.825Q251.11041 303.825 251.82916 304.5125Q252.54791 305.2 252.54791 306.21564Q252.54791 306.73126 252.32916 307.23126Q252.12604 307.71564 251.62604 308.27814Q251.14166 308.825 250.01666 309.77814Q249.06354 310.575 248.78229 310.8719Q248.51666 311.15314 248.34479 311.4344L252.56354 311.4344ZM254.01666 308.21564Q254.01666 306.6844 254.32916 305.7625Q254.64166 304.825 255.25104 304.325Q255.87604 303.825 256.81354 303.825Q257.50104 303.825 258.01666 304.10626Q258.5479 304.3875 258.89166 304.91876Q259.2354 305.4344 259.4229 306.1844Q259.6104 306.9344 259.6104 308.21564Q259.6104 309.73126 259.2979 310.65314Q259.00104 311.575 258.37604 312.09064Q257.76666 312.59064 256.81354 312.59064Q255.57916 312.59064 254.86041 311.7Q254.01666 310.6375 254.01666 308.21564ZM255.09479 308.21564Q255.09479 310.325 255.59479 311.02814Q256.0948 311.73126 256.81354 311.73126Q257.5479 311.73126 258.0323 311.02814Q258.5323 310.325 258.5323 308.21564Q258.5323 306.09064 258.0323 305.40314Q257.5479 304.7 256.7979 304.7Q256.07916 304.7 255.64166 305.3094Q255.09479 306.09064 255.09479 308.21564Z" fill-rule="nonzero"/><path fill="#000000" d="M410.98334 310.1844L412.04584 310.04376Q412.2177 310.9344 412.6552 311.34064Q413.0927 311.73126 413.7177 311.73126Q414.4677 311.73126 414.98334 311.21564Q415.49896 310.7 415.49896 309.9344Q415.49896 309.21564 415.0146 308.7469Q414.54584 308.2625 413.81146 308.2625Q413.5146 308.2625 413.06146 308.3875L413.18646 307.45Q413.29584 307.46564 413.35834 307.46564Q414.0302 307.46564 414.56146 307.1219Q415.10834 306.7625 415.10834 306.02814Q415.10834 305.45 414.7177 305.075Q414.3271 304.6844 413.7021 304.6844Q413.0927 304.6844 412.67084 305.075Q412.2646 305.46564 412.1552 306.23126L411.0927 306.04376Q411.2802 304.9969 411.9677 304.41876Q412.6552 303.825 413.67084 303.825Q414.37396 303.825 414.9677 304.1375Q415.56146 304.4344 415.87396 304.95Q416.18646 305.46564 416.18646 306.0594Q416.18646 306.60626 415.8896 307.075Q415.5927 307.52814 415.0146 307.79376Q415.7646 307.96564 416.18646 308.52814Q416.60834 309.075 416.60834 309.91876Q416.60834 311.04376 415.7802 311.825Q414.9677 312.60626 413.7177 312.60626Q412.5927 312.60626 411.8427 311.9344Q411.0927 311.2469 410.98334 310.1844ZM417.98334 308.21564Q417.98334 306.6844 418.29584 305.7625Q418.60834 304.825 419.2177 304.325Q419.8427 303.825 420.7802 303.825Q421.4677 303.825 421.98334 304.10626Q422.5146 304.3875 422.85834 304.91876Q423.2021 305.4344 423.3896 306.1844Q423.5771 306.9344 423.5771 308.21564Q423.5771 309.73126 423.2646 310.65314Q422.9677 311.575 422.3427 312.09064Q421.73334 312.59064 420.7802 312.59064Q419.54584 312.59064 418.8271 311.7Q417.98334 310.6375 417.98334 308.21564ZM419.06146 308.21564Q419.06146 310.325 419.56146 311.02814Q420.06146 311.73126 420.7802 311.73126Q421.5146 311.73126 421.99896 311.02814Q422.49896 310.325 422.49896 308.21564Q422.49896 306.09064 421.99896 305.40314Q421.5146 304.7 420.7646 304.7Q420.04584 304.7 419.60834 305.3094Q419.06146 306.09064 419.06146 308.21564Z" fill-rule="nonzero"/><path fill="#000000" d="M578.325 312.45L578.325 310.3875L574.60626 310.3875L574.60626 309.41876L578.52814 303.85626L579.3875 303.85626L579.3875 309.41876L580.54376 309.41876L580.54376 310.3875L579.3875 310.3875L579.3875 312.45L578.325 312.45ZM578.325 309.41876L578.325 305.5594L575.6375 309.41876L578.325 309.41876ZM581.95 308.21564Q581.95 306.6844 582.2625 305.7625Q582.575 304.825 583.1844 304.325Q583.8094 303.825 584.7469 303.825Q585.4344 303.825 585.95 304.10626Q586.48126 304.3875 586.825 304.91876Q587.16876 305.4344 587.35626 306.1844Q587.54376 306.9344 587.54376 308.21564Q587.54376 309.73126 587.23126 310.65314Q586.9344 311.575 586.3094 312.09064Q585.7 312.59064 584.7469 312.59064Q583.5125 312.59064 582.79376 311.7Q581.95 310.6375 581.95 308.21564ZM583.02814 308.21564Q583.02814 310.325 583.52814 311.02814Q584.02814 311.73126 584.7469 311.73126Q585.48126 311.73126 585.96564 311.02814Q586.46564 310.325 586.46564 308.21564Q586.46564 306.09064 585.96564 305.40314Q585.48126 304.7 584.73126 304.7Q584.0125 304.7 583.575 305.3094Q583.02814 306.09064 583.02814 308.21564Z" fill-rule="nonzero"/><path stroke="#4285f4" stroke-width="4.0" stroke-linecap="butt" d="M232.0 26.55L244.0 26.55" fill-rule="nonzero"/><path fill="#1a1a1a" d="M252.67188 26.675Q252.67188 24.175 254.01562 22.76875Q255.35938 21.346874 257.46875 21.346874Q258.85938 21.346874 259.96875 22.01875Q261.09375 22.675 261.67188 23.8625Q262.26562 25.05 262.26562 26.55Q262.26562 28.08125 261.64062 29.284374Q261.03125 30.4875 259.90625 31.1125Q258.78125 31.721874 257.46875 31.721874Q256.04688 31.721874 254.9375 31.034374Q253.82812 30.346874 253.25 29.175Q252.67188 27.9875 252.67188 26.675ZM254.04688 26.690624Q254.04688 28.503124 255.01562 29.55Q256.0 30.58125 257.46875 30.58125Q258.95312 30.58125 259.92188 29.534374Q260.89062 28.4875 260.89062 26.55Q260.89062 25.315624 260.46875 24.409374Q260.0625 23.503124 259.26562 23.003124Q258.46875 22.4875 257.48438 22.4875Q256.07812 22.4875 255.0625 23.45625Q254.04688 24.425 254.04688 26.690624ZM266.28125 34.503124Q265.25 33.20625 264.54688 31.4875Q263.84375 29.76875 263.84375 27.925Q263.84375 26.3 264.375 24.8Q264.98438 23.065624 266.28125 21.3625L267.15625 21.3625Q266.32812 22.784374 266.0625 23.39375Q265.64062 24.33125 265.40625 25.3625Q265.10938 26.628124 265.10938 27.925Q265.10938 31.221874 267.15625 34.503124L266.28125 34.503124ZM268.92188 31.55L268.92188 24.284374L270.03125 24.284374L270.03125 25.315624Q270.82812 24.128124 272.34375 24.128124Q273.0 24.128124 273.54688 24.3625Q274.09375 24.596874 274.35938 24.9875Q274.64062 25.3625 274.75 25.89375Q274.82812 26.2375 274.82812 27.08125L274.82812 31.55L273.59375 31.55L273.59375 27.128124Q273.59375 26.378124 273.45312 26.01875Q273.3125 25.64375 272.9375 25.425Q272.57812 25.190624 272.07812 25.190624Q271.29688 25.190624 270.71875 25.690624Q270.15625 26.190624 270.15625 27.58125L270.15625 31.55L268.92188 31.55ZM276.17188 26.534374Q276.21875 26.14375 276.5 25.753124Q276.92188 25.175 277.90625 24.45625Q278.89062 23.7375 279.07812 23.534374Q279.32812 23.253124 279.32812 22.95625Q279.32812 22.628124 279.07812 22.425Q278.84375 22.20625 278.39062 22.20625Q277.9375 22.20625 277.70312 22.378124Q277.48438 22.534374 277.34375 22.9875L276.3125 22.878124Q276.51562 22.128124 277.0 21.76875Q277.48438 21.409374 278.40625 21.409374Q279.4375 21.409374 279.92188 21.815624Q280.40625 22.20625 280.40625 22.8Q280.40625 23.3625 280.0 23.878124Q279.6875 24.26875 278.59375 25.05Q278.03125 25.471874 277.79688 25.70625L280.4375 25.70625L280.4375 26.534374L276.17188 26.534374ZM282.73438 34.503124L281.84375 34.503124Q283.89062 31.221874 283.89062 27.925Q283.89062 26.64375 283.59375 25.378124Q283.35938 24.346874 282.95312 23.409374Q282.6875 22.8 281.84375 21.3625L282.73438 21.3625Q284.01562 23.065624 284.625 24.8Q285.15625 26.3 285.15625 27.925Q285.15625 29.76875 284.4375 31.4875Q283.73438 33.20625 282.73438 34.503124Z" fill-rule="nonzero"/><path stroke="#ea4335" stroke-width="4.0" stroke-linecap="butt" d="M302.0 26.55L314.0 26.55" fill-rule="nonzero"/><path fill="#1a1a1a" d="M322.67188 26.675Q322.67188 24.175 324.01562 22.76875Q325.35938 21.346874 327.46875 21.346874Q328.85938 21.346874 329.96875 22.01875Q331.09375 22.675 331.67188 23.8625Q332.26562 25.05 332.26562 26.55Q332.26562 28.08125 331.64062 29.284374Q331.03125 30.4875 329.90625 31.1125Q328.78125 31.721874 327.46875 31.721874Q326.04688 31.721874 324.9375 31.034374Q323.82812 30.346874 323.25 29.175Q322.67188 27.9875 322.67188 26.675ZM324.04688 26.690624Q324.04688 28.503124 325.01562 29.55Q326.0 30.58125 327.46875 30.58125Q328.95312 30.58125 329.92188 29.534374Q330.89062 28.4875 330.89062 26.55Q330.89062 25.315624 330.46875 24.409374Q330.0625 23.503124 329.26562 23.003124Q328.46875 22.4875 327.48438 22.4875Q326.07812 22.4875 325.0625 23.45625Q324.04688 24.425 324.04688 26.690624ZM336.28125 34.503124Q335.25 33.20625 334.54688 31.4875Q333.84375 29.76875 333.84375 27.925Q333.84375 26.3 334.375 24.8Q334.98438 23.065624 336.28125 21.3625L337.15625 21.3625Q336.32812 22.784374 336.0625 23.39375Q335.64062 24.33125 335.40625 25.3625Q335.10938 26.628124 335.10938 27.925Q335.10938 31.221874 337.15625 34.503124L336.28125 34.503124ZM338.92188 31.55L338.92188 24.284374L340.03125 24.284374L340.03125 25.315624Q340.82812 24.128124 342.34375 24.128124Q343.0 24.128124 343.54688 24.3625Q344.09375 24.596874 344.35938 24.9875Q344.64062 25.3625 344.75 25.89375Q344.82812 26.2375 344.82812 27.08125L344.82812 31.55L343.59375 31.55L343.59375 27.128124Q343.59375 26.378124 343.45312 26.01875Q343.3125 25.64375 342.9375 25.425Q342.57812 25.190624 342.07812 25.190624Q341.29688 25.190624 340.71875 25.690624Q340.15625 26.190624 340.15625 27.58125L340.15625 31.55L338.92188 31.55ZM346.17188 26.534374Q346.21875 26.14375 346.5 25.753124Q346.92188 25.175 347.90625 24.45625Q348.89062 23.7375 349.07812 23.534374Q349.32812 23.253124 349.32812 22.95625Q349.32812 22.628124 349.07812 22.425Q348.84375 22.20625 348.39062 22.20625Q347.9375 22.20625 347.70312 22.378124Q347.48438 22.534374 347.34375 22.9875L346.3125 22.878124Q346.51562 22.128124 347.0 21.76875Q347.48438 21.409374 348.40625 21.409374Q349.4375 21.409374 349.92188 21.815624Q350.40625 22.20625 350.40625 22.8Q350.40625 23.3625 350.0 23.878124Q349.6875 24.26875 348.59375 25.05Q348.03125 25.471874 347.79688 25.70625L350.4375 25.70625L350.4375 26.534374L346.17188 26.534374ZM352.73438 34.503124L351.84375 34.503124Q353.89062 31.221874 353.89062 27.925Q353.89062 26.64375 353.59375 25.378124Q353.35938 24.346874 352.95312 23.409374Q352.6875 22.8 351.84375 21.3625L352.73438 21.3625Q354.01562 23.065624 354.625 24.8Q355.15625 26.3 355.15625 27.925Q355.15625 29.76875 354.4375 31.4875Q353.73438 33.20625 352.73438 34.503124ZM356.0 31.721874L358.90625 21.3625L359.89062 21.3625L356.98438 31.721874L356.0 31.721874ZM367.04688 30.3625L367.04688 31.55L360.42188 31.55Q360.40625 31.1125 360.5625 30.690624Q360.82812 30.01875 361.375 29.3625Q361.9375 28.70625 362.98438 27.846874Q364.625 26.503124 365.1875 25.721874Q365.76562 24.940624 365.76562 24.2375Q365.76562 23.503124 365.23438 23.003124Q364.71875 22.503124 363.89062 22.503124Q363.0 22.503124 362.45312 23.034374Q361.92188 23.565624 361.92188 24.51875L360.65625 24.378124Q360.78125 22.971874 361.625 22.2375Q362.48438 21.4875 363.90625 21.4875Q365.35938 21.4875 366.1875 22.284374Q367.03125 23.08125 367.03125 24.26875Q367.03125 24.878124 366.78125 25.45625Q366.54688 26.034374 365.96875 26.675Q365.40625 27.315624 364.07812 28.440624Q362.96875 29.3625 362.65625 29.70625Q362.34375 30.034374 362.14062 30.3625L367.04688 30.3625Z" fill-rule="nonzero"/></svg>